<?xml version="1.0" encoding="UTF-8"?>
<svg version="1.1" xmlns="http://www.w3.org/2000/svg" width="225" height="225">
<path d="M0 0 C3.9998593 -0.08783475 7.99946704 -0.14067102 12 -0.1875 C13.12535156 -0.21263672 14.25070313 -0.23777344 15.41015625 -0.26367188 C24.54578307 -0.34380895 31.52227698 0.82369042 38.40625 7.22265625 C50.92172773 21.17986793 51.96624994 43.66130835 51.19091797 61.43603516 C50.19723996 74.78080043 44.92211332 88.92099182 36 99 C26.32684424 106.96337278 7.69178619 104.13954766 -4.21484375 104.09765625 C-5.80766251 104.09578493 -7.40048185 104.09436441 -8.99330139 104.09336853 C-13.1310289 104.08959946 -17.2687198 104.07981904 -21.40643311 104.06866455 C-25.65050766 104.05832788 -29.89458829 104.05384499 -34.13867188 104.04882812 C-42.42579782 104.03819012 -50.71289432 104.02118359 -59 104 C-59 105.65 -59 107.3 -59 109 C-58.35076065 108.99777939 -57.7015213 108.99555878 -57.03260803 108.99327087 C-50.30112252 108.97121998 -43.56964719 108.95609423 -36.83813477 108.94506836 C-34.32283105 108.94002637 -31.80753028 108.93319297 -29.29223633 108.92456055 C-25.68570225 108.91248906 -22.07920677 108.90677051 -18.47265625 108.90234375 C-16.77424339 108.89460182 -16.77424339 108.89460182 -15.04151917 108.88670349 C-13.48001381 108.88659019 -13.48001381 108.88659019 -11.88696289 108.88647461 C-10.96540909 108.884254 -10.04385529 108.88203339 -9.09437561 108.87974548 C-7 109 -7 109 -6 110 C-5.71786466 113.51258504 -5.76807594 117.03995157 -5.75 120.5625 C-5.729375 121.54025391 -5.70875 122.51800781 -5.6875 123.52539062 C-5.64294653 131.84018213 -7.07704755 138.95828926 -12.8828125 145.26953125 C-29.85262967 159.13969547 -53.297288 159.12778615 -74 158 C-86.54400005 156.61671866 -100.03136635 152.19284949 -109 143 C-112.77865902 137.59492787 -114.10686911 132.98265943 -114.19287109 126.47216797 C-114.20893402 125.36356415 -114.22499695 124.25496033 -114.24154663 123.11276245 C-114.28622847 118.04002631 -114.32707302 112.96741846 -114.35009766 107.89453125 C-114.36339644 105.22496229 -114.39388087 102.55721207 -114.43212891 99.88769531 C-114.48712544 96.02646049 -114.50880949 92.16626222 -114.5234375 88.3046875 C-114.54610687 87.12204315 -114.56877625 85.9393988 -114.59213257 84.72091675 C-114.56954546 75.78512301 -112.59058972 69.18082365 -106.71875 62.34375 C-105.9865625 61.7353125 -105.254375 61.126875 -104.5 60.5 C-103.7678125 59.8709375 -103.035625 59.241875 -102.28125 58.59375 C-94.05918176 52.84956534 -83.94336285 53.85580181 -74.359375 53.82421875 C-72.34501365 53.80695653 -70.33065219 53.78967021 -68.31630325 53.77101612 C-63.38000413 53.72573236 -58.44381989 53.68773376 -53.50732422 53.67407227 C-50.05599378 53.663901 -46.60527098 53.63435618 -43.15418243 53.59275246 C-41.2252434 53.57471772 -39.29614758 53.57706979 -37.36712646 53.58000183 C-26.97265035 53.43689885 -17.46932356 51.59897578 -9.77294922 44.14599609 C-2.5208835 35.36802065 -1.1234145 26.45596592 -1.1875 15.375 C-1.16336535 12.88277936 -1.13618655 10.3905857 -1.10546875 7.8984375 C-1.10699951 6.81224121 -1.10853027 5.72604492 -1.11010742 4.60693359 C-1 2 -1 2 0 0 Z M-39 128 C-39.67639058 131.02280746 -39.45558841 132.81088113 -39 136 C-36.85091353 139.35257489 -35.42643319 139.89145337 -31.5625 140.875 C-27.96273284 141.00130762 -26.10025484 140.7715742 -23 139 C-20.53780228 135.30670342 -20.20801317 132.2850656 -21 128 C-22.98921886 125.0161717 -24.38502568 123.39723159 -27.9375 122.5234375 C-33.19780565 122.1448549 -35.99281939 123.48922908 -39 128 Z " fill="#FEDF5A" transform="translate(173,61)"/>
<path d="M0 0 C6.36010867 6.30456187 8.88568345 12.37697533 8.95019531 21.24707031 C8.95980286 22.31878479 8.9694104 23.39049927 8.97930908 24.49468994 C8.9856839 26.21821686 8.9856839 26.21821686 8.9921875 27.9765625 C8.99788757 29.16892517 9.00358765 30.36128784 9.00946045 31.58978271 C9.01889838 34.1114412 9.02543963 36.63311196 9.02929688 39.15478516 C9.03899157 42.99533836 9.070023 46.8353538 9.1015625 50.67578125 C9.10809417 53.13020517 9.11334399 55.5846329 9.1171875 58.0390625 C9.1295343 59.17998352 9.1418811 60.32090454 9.15460205 61.49639893 C9.12745073 71.30640843 7.58539887 78.78533187 0.7578125 86.046875 C-5.11854324 91.20034571 -11.54787029 92.87858147 -19.21362305 92.94702148 C-20.42555832 92.96051132 -21.63749359 92.97400116 -22.88615417 92.98789978 C-24.8470977 93.00355736 -24.8470977 93.00355736 -26.84765625 93.01953125 C-28.21044189 93.03504919 -29.57321981 93.0512599 -30.93598938 93.06813049 C-36.71138503 93.1386297 -42.48685535 93.19875583 -48.26245117 93.25024414 C-51.80092825 93.2822618 -55.33920165 93.32359666 -58.87751198 93.37043953 C-60.86526648 93.3939992 -62.85313586 93.40713443 -64.84098816 93.42002869 C-76.00544015 93.57136809 -85.14574088 94.78953602 -94.2109375 101.7734375 C-100.3476204 108.12928764 -103.45145387 115.23807699 -103.94140625 124.01953125 C-103.9815535 124.67550797 -104.02170074 125.33148468 -104.06306458 126.00733948 C-104.18686335 128.07471892 -104.29295438 130.14255116 -104.3984375 132.2109375 C-104.4799439 133.62441726 -104.56261575 135.03783031 -104.64648438 136.45117188 C-104.84809724 139.89126061 -105.03385786 143.3319885 -105.2109375 146.7734375 C-109.33555431 146.92032556 -113.45948674 147.00803794 -117.5859375 147.0859375 C-119.32037109 147.1487793 -119.32037109 147.1487793 -121.08984375 147.21289062 C-129.68323136 147.33426616 -136.45688183 145.94528675 -143.05297852 140.15698242 C-154.54772281 128.36451605 -156.45140224 108.84051653 -156.46240234 93.18920898 C-156.22797262 79.6251053 -153.68218973 63.45466741 -144 53.30078125 C-132.37753002 43.37854159 -119.96816091 43.4850085 -105.48828125 43.578125 C-103.77478705 43.58186085 -102.06129069 43.58470512 -100.34779358 43.58670044 C-95.86469498 43.5942919 -91.38172849 43.61390123 -86.89868164 43.6361084 C-82.31333197 43.65666412 -77.72796071 43.66572285 -73.14257812 43.67578125 C-64.16530693 43.69715186 -55.18813325 43.73123286 -46.2109375 43.7734375 C-46.2109375 42.1234375 -46.2109375 40.4734375 -46.2109375 38.7734375 C-63.3709375 38.7734375 -80.5309375 38.7734375 -98.2109375 38.7734375 C-100.16946512 34.85638226 -99.39577894 29.95530894 -99.3984375 25.6484375 C-99.41068359 24.6275 -99.42292969 23.6065625 -99.43554688 22.5546875 C-99.45133819 14.36425825 -98.95151018 6.96777465 -93.7421875 0.3046875 C-75.76023373 -17.67726627 -18.64990056 -15.11946671 0 0 Z M-84.2109375 11.7734375 C-85.37760417 13.60677083 -85.37760417 13.60677083 -85.2109375 15.7734375 C-83.68694666 20.56703119 -83.68694666 20.56703119 -80.3984375 24.2109375 C-76.33345542 25.25621861 -73.33999842 25.26098653 -69.4609375 23.5859375 C-66.76908598 21.41750155 -65.99179727 20.13113449 -65.2109375 16.7734375 C-65.35178904 13.32257476 -65.86660594 11.31862914 -67.7109375 8.3984375 C-73.89338012 4.3798498 -79.96230065 5.93156184 -84.2109375 11.7734375 Z " fill="#3C78A9" transform="translate(158.2109375,17.2265625)"/>
<path d="M0 0 C0.495 0.99 0.495 0.99 1 2 C0.38253906 1.86722656 -0.23492187 1.73445312 -0.87109375 1.59765625 C-6.57627325 0.40799173 -12.19930684 -0.4386426 -18 -1 C-18 -0.67 -18 -0.34 -18 0 C-20.54046458 0.50688605 -23.08208876 1.00566874 -25.625 1.5 C-26.33785156 1.64308594 -27.05070312 1.78617188 -27.78515625 1.93359375 C-31.92144935 2.73049426 -35.76433679 3.16034056 -40 3 C-39.34 1.35 -38.68 -0.3 -38 -2 C-40.475 -2.495 -40.475 -2.495 -43 -3 C-43 -1.68 -43 -0.36 -43 1 C-46.08888522 3.05925681 -46.70935927 3.2390374 -50.1875 3.125 C-52.0746875 3.063125 -52.0746875 3.063125 -54 3 C-54 2.34 -54 1.68 -54 1 C-56.31 1 -58.62 1 -61 1 C-61 1.66 -61 2.32 -61 3 C-60.34 3.33 -59.68 3.66 -59 4 C-60.98 4.99 -60.98 4.99 -63 6 C-62.67 6.66 -62.34 7.32 -62 8 C-65 10 -65 10 -67.375 10.25 C-71.28931438 11.36837554 -72.70171981 13.74410307 -75 17 C-76.33897136 19.85647224 -76.00496265 20.97744251 -75.3125 24.125 C-74.26014013 27.0119981 -74.26014013 27.0119981 -72.25 28.375 C-68.61862401 29.38371555 -65.46005764 29.37544339 -61.8125 28.4375 C-58.92767913 26.14953862 -58.16194839 23.42774776 -57 20 C-56.56053901 16.13274325 -56.77545077 15.33682385 -59 12 C-57.35 12 -55.7 12 -54 12 C-53.97312721 13.81242052 -53.95366285 15.62495233 -53.9375 17.4375 C-53.92589844 18.44683594 -53.91429687 19.45617187 -53.90234375 20.49609375 C-54 23 -54 23 -55 24 C-54.71269945 26.33944736 -54.38063221 28.6739143 -54 31 C-55.32 31.66 -56.64 32.32 -58 33 C-57.04134491 35.33075929 -57.04134491 35.33075929 -54 37 C-58.95 37.33 -63.9 37.66 -69 38 C-62.07 38.33 -55.14 38.66 -48 39 C-48 39.33 -48 39.66 -48 40 C-50.97 40.495 -50.97 40.495 -54 41 C-54 41.33 -54 41.66 -54 42 C-66.21 42 -78.42 42 -91 42 C-91.04125 38.37 -91.0825 34.74 -91.125 31 C-91.14320801 29.87207031 -91.16141602 28.74414062 -91.18017578 27.58203125 C-91.22468149 19.43892185 -90.70846939 12.1532748 -85.53125 5.53125 C-68.86657345 -11.13342655 -19.8008546 -8.64037292 0 0 Z " fill="#4787B8" transform="translate(150,12)"/>
<path d="M0 0 C7.38728102 -0.02526692 14.77455098 -0.0428316 22.16186523 -0.05493164 C24.67716895 -0.05997363 27.19246972 -0.06680703 29.70776367 -0.07543945 C33.31429775 -0.08751094 36.92079323 -0.09322949 40.52734375 -0.09765625 C42.22575661 -0.10539818 42.22575661 -0.10539818 43.95848083 -0.11329651 C45.51998619 -0.11340981 45.51998619 -0.11340981 47.11303711 -0.11352539 C48.03459091 -0.115746 48.95614471 -0.11796661 49.90562439 -0.12025452 C52 0 52 0 53 1 C53.28213534 4.51258504 53.23192406 8.03995157 53.25 11.5625 C53.270625 12.54025391 53.29125 13.51800781 53.3125 14.52539062 C53.35706891 22.84306283 51.91532286 29.92999888 46.13671875 36.26171875 C40.0243104 41.23433615 31.86680084 45.29107318 24 46 C23.34 45.67 22.68 45.34 22 45 C22 40.05 22 35.1 22 30 C23.381875 30.185625 24.76375 30.37125 26.1875 30.5625 C29.69618729 30.96096291 32.56622781 30.9969016 36 30 C37.23246444 26.30260667 37.58247658 22.84434545 37 19 C35.24934167 16.58140803 35.24934167 16.58140803 33 15 C32.34 14.34 31.68 13.68 31 13 C28.78927023 12.75746187 28.78927023 12.75746187 26.375 12.875 C25.14910156 12.90207031 25.14910156 12.90207031 23.8984375 12.9296875 C22.95871094 12.96449219 22.95871094 12.96449219 22 13 C22 10.36 22 7.72 22 5 C16.06 5.33 10.12 5.66 4 6 C3.67 5.34 3.34 4.68 3 4 C3.99 3.67 4.98 3.34 6 3 C6 2.34 6 1.68 6 1 C4.02 1 2.04 1 0 1 C0 0.67 0 0.34 0 0 Z " fill="#FCD43C" transform="translate(114,170)"/>
<path d="M0 0 C0.66 0 1.32 0 2 0 C4.2353939 31.66223394 4.2353939 31.66223394 -2 44 C-2.43183594 44.89460938 -2.86367187 45.78921875 -3.30859375 46.7109375 C-4.44217107 48.89333869 -5.65549034 50.94290022 -7 53 C-7.598125 53.928125 -8.19625 54.85625 -8.8125 55.8125 C-15.52855966 62.52855966 -23.00209709 62.63662436 -32 62.75 C-33.15628906 62.77964844 -34.31257813 62.80929688 -35.50390625 62.83984375 C-38.33600562 62.91006109 -41.16730473 62.96299632 -44 63 C-44 62.34 -44 61.68 -44 61 C-46.64 61 -49.28 61 -52 61 C-52 60.34 -52 59.68 -52 59 C-24.38678091 56.80660955 -24.38678091 56.80660955 -20 59 C-19.505 58.01 -19.505 58.01 -19 57 C-18.195625 56.814375 -17.39125 56.62875 -16.5625 56.4375 C-13.86216799 55.2861244 -13.86216799 55.2861244 -13.26171875 53.01171875 C-12.7620377 50.68114531 -12.36961735 48.35430182 -12 46 C-11.68064015 44.66325089 -11.35185743 43.32856511 -11 42 C-8.66666667 42 -6.33333333 42 -4 42 C-4 35.07 -4 28.14 -4 21 C-3.505 21.99 -3.505 21.99 -3 23 C-2.01 23 -1.02 23 0 23 C0 21.35 0 19.7 0 18 C-0.99 18 -1.98 18 -3 18 C-3.33 13.38 -3.66 8.76 -4 4 C-2.68 3.34 -1.36 2.68 0 2 C0 1.34 0 0.68 0 0 Z " fill="#FCD847" transform="translate(220,102)"/>
<path d="M0 0 C1.75833474 0.00373563 3.51667158 0.00658 5.27500916 0.00857544 C9.87647366 0.01616861 14.47780954 0.03577947 19.07922363 0.0579834 C23.78521994 0.07853538 28.49123726 0.08759706 33.19726562 0.09765625 C42.41151448 0.11902989 51.62566837 0.15311302 60.83984375 0.1953125 C60.83984375 0.8553125 60.83984375 1.5153125 60.83984375 2.1953125 C59.90769547 2.20561996 58.97554718 2.21592743 58.01515198 2.22654724 C49.20292489 2.32457657 40.39076378 2.42733655 31.57864475 2.53465176 C27.04895371 2.58966497 22.519256 2.64304868 17.98950195 2.69262695 C13.61280553 2.74059132 9.23618099 2.79294246 4.85957146 2.84825325 C3.19516747 2.8685325 1.53074389 2.88726793 -0.1336956 2.90438652 C-12.22165894 2.78276437 -12.22165894 2.78276437 -24.16015625 4.1953125 C-25.41347949 6.17329189 -25.41347949 6.17329189 -26.16015625 8.1953125 C-25.50015625 8.1953125 -24.84015625 8.1953125 -24.16015625 8.1953125 C-24.16015625 9.1853125 -24.16015625 10.1753125 -24.16015625 11.1953125 C-24.93101563 11.16050781 -25.701875 11.12570313 -26.49609375 11.08984375 C-28.00042969 11.04923828 -28.00042969 11.04923828 -29.53515625 11.0078125 C-30.53289063 10.97300781 -31.530625 10.93820313 -32.55859375 10.90234375 C-33.84636719 11.04736328 -33.84636719 11.04736328 -35.16015625 11.1953125 C-37.43135793 14.60211502 -37.14159874 16.23486858 -37.046875 20.19140625 C-37.21670148 23.19557816 -38.23707904 24.92882864 -40.16015625 27.1953125 C-42.26953125 27.82421875 -42.26953125 27.82421875 -44.16015625 28.1953125 C-44.36511719 29.02675781 -44.57007813 29.85820313 -44.78125 30.71484375 C-45.18537109 32.34486328 -45.18537109 32.34486328 -45.59765625 34.0078125 C-45.86449219 35.08675781 -46.13132812 36.16570312 -46.40625 37.27734375 C-46.92093037 39.2693968 -47.509528 41.24342774 -48.16015625 43.1953125 C-48.28571059 45.93706888 -48.34995129 48.64081843 -48.34765625 51.3828125 C-48.34830078 52.17349121 -48.34894531 52.96416992 -48.34960938 53.77880859 C-48.28036337 61.68072243 -47.3506197 69.39352522 -46.16015625 77.1953125 C-46.82015625 76.8653125 -47.48015625 76.5353125 -48.16015625 76.1953125 C-53.38688728 56.22344575 -53.07899533 33.70103227 -43.16015625 15.1953125 C-38.67507699 8.03798542 -31.61862091 3.53739822 -23.61669922 1.12866211 C-15.88874422 -0.52056614 -7.86219505 -0.04924375 0 0 Z " fill="#5691BB" transform="translate(53.16015625,60.8046875)"/>
<path d="M0 0 C0.33 0 0.66 0 1 0 C1.8053 3.54695175 2.1347002 6.83926502 2.16113281 10.47363281 C2.17074036 11.54534729 2.1803479 12.61706177 2.19024658 13.72125244 C2.19449646 14.87027039 2.19874634 16.01928833 2.203125 17.203125 C2.20882507 18.39548767 2.21452515 19.58785034 2.22039795 20.81634521 C2.22983588 23.3380037 2.23637713 25.85967446 2.24023438 28.38134766 C2.24992907 32.22190086 2.2809605 36.0619163 2.3125 39.90234375 C2.31903167 42.35676767 2.32428149 44.8111954 2.328125 47.265625 C2.3404718 48.40654602 2.3528186 49.54746704 2.36553955 50.72296143 C2.33838823 60.53297093 0.79633637 68.01189437 -6.03125 75.2734375 C-11.86083557 80.38589151 -18.25390238 82.12979935 -25.87011719 82.11352539 C-27.05103943 82.11344986 -28.23196167 82.11337433 -29.44866943 82.11329651 C-30.71857727 82.10813522 -31.98848511 82.10297394 -33.296875 82.09765625 C-35.25273529 82.09553383 -35.25273529 82.09553383 -37.24810791 82.09336853 C-40.70703055 82.08955867 -44.16591091 82.07974151 -47.62481689 82.06866455 C-51.15742419 82.05841746 -54.69003836 82.05386385 -58.22265625 82.04882812 C-65.14845482 82.03811782 -72.07422538 82.02105984 -79 82 C-79 81.67 -79 81.34 -79 81 C-72.39864971 80.22983337 -65.9172047 79.86069577 -59.2734375 79.90234375 C-58.39974518 79.9037587 -57.52605286 79.90517365 -56.62588501 79.90663147 C-53.87555297 79.91216326 -51.12530682 79.92470226 -48.375 79.9375 C-46.49349077 79.94252384 -44.61198025 79.94708519 -42.73046875 79.95117188 C-38.15361348 79.96211021 -33.57682123 79.97932638 -29 80 C-29 79.01 -29 78.02 -29 77 C-28.03578125 76.95101562 -27.0715625 76.90203125 -26.078125 76.8515625 C-24.18320313 76.73941406 -24.18320313 76.73941406 -22.25 76.625 C-20.37054688 76.52058594 -20.37054688 76.52058594 -18.453125 76.4140625 C-14.30252437 75.91636604 -12.13619056 74.86885161 -8.875 72.375 C-7 71 -7 71 -5 71 C-5.33 70.01 -5.66 69.02 -6 68 C-4.5625 65.8125 -4.5625 65.8125 -3 64 C-3.66 64 -4.32 64 -5 64 C-5 61.36 -5 58.72 -5 56 C-4.67 56.66 -4.34 57.32 -4 58 C-3.01 58 -2.02 58 -1 58 C-0.67 38.86 -0.34 19.72 0 0 Z " fill="#306592" transform="translate(165,28)"/>
<path d="M0 0 C7.38728102 -0.02526692 14.77455098 -0.0428316 22.16186523 -0.05493164 C24.67716895 -0.05997363 27.19246972 -0.06680703 29.70776367 -0.07543945 C33.31429775 -0.08751094 36.92079323 -0.09322949 40.52734375 -0.09765625 C42.22575661 -0.10539818 42.22575661 -0.10539818 43.95848083 -0.11329651 C45.51998619 -0.11340981 45.51998619 -0.11340981 47.11303711 -0.11352539 C48.03459091 -0.115746 48.95614471 -0.11796661 49.90562439 -0.12025452 C52 0 52 0 53 1 C53.28213534 4.51258504 53.23192406 8.03995157 53.25 11.5625 C53.270625 12.54025391 53.29125 13.51800781 53.3125 14.52539062 C53.34583843 20.747175 52.56588619 25.32128873 50 31 C49.34 30.67 48.68 30.34 48 30 C48 28.02 48 26.04 48 24 C48.66 24 49.32 24 50 24 C50 23.34 50 22.68 50 22 C49.34 22 48.68 22 48 22 C48 15.07 48 8.14 48 1 C47.34 1.33 46.68 1.66 46 2 C43.0804725 2.0993164 40.1853274 2.1398001 37.265625 2.1328125 C36.39484314 2.13376923 35.52406128 2.13472595 34.62689209 2.13571167 C32.78088306 2.13639304 30.93487164 2.13454177 29.08886719 2.13037109 C26.27533507 2.12504793 23.46196447 2.13030418 20.6484375 2.13671875 C18.85416632 2.13605746 17.05989523 2.13477523 15.265625 2.1328125 C14.42791565 2.13483673 13.5902063 2.13686096 12.72711182 2.13894653 C8.37181661 2.12165441 4.28877559 1.87107645 0 1 C0 0.67 0 0.34 0 0 Z " fill="#FAD632" transform="translate(114,170)"/>
<path d="M0 0 C0.99 0.33 1.98 0.66 3 1 C5.63804589 0.60602665 5.63804589 0.60602665 8 0 C8 0.99 8 1.98 8 3 C7.34 3 6.68 3 6 3 C5.896875 3.680625 5.79375 4.36125 5.6875 5.0625 C4.46520587 10.28502948 3.29004124 13.97871735 -1 17.375 C-5.11393958 19.60338394 -8.14583047 20.15238992 -12.76171875 20.31640625 C-13.87998047 20.35830078 -14.99824219 20.40019531 -16.15039062 20.44335938 C-17.31763672 20.48267578 -18.48488281 20.52199219 -19.6875 20.5625 C-20.86634766 20.60568359 -22.04519531 20.64886719 -23.25976562 20.69335938 C-26.17305883 20.79951176 -29.08643757 20.90156242 -32 21 C-32 20.34 -32 19.68 -32 19 C-34.64 19 -37.28 19 -40 19 C-40 18.34 -40 17.68 -40 17 C-12.38678091 14.80660955 -12.38678091 14.80660955 -8 17 C-7.67 16.34 -7.34 15.68 -7 15 C-5.7934375 14.7215625 -5.7934375 14.7215625 -4.5625 14.4375 C-1.86742362 13.28241767 -1.86742362 13.28241767 -1.2265625 11.01171875 C-0.37338473 7.23424325 0 3.89172484 0 0 Z " fill="#FCD639" transform="translate(208,144)"/>
<path d="M0 0 C0.66 0 1.32 0 2 0 C2 4.95 2 9.9 2 15 C1.34 15 0.68 15 0 15 C0.00580078 15.95197266 0.01160156 16.90394531 0.01757812 17.88476562 C0.05992087 28.09979085 -0.16144961 38.29122879 -0.5 48.5 C-0.54840887 50.0169197 -0.59658686 51.53384679 -0.64453125 53.05078125 C-0.76037619 56.70060933 -0.87928605 60.35032932 -1 64 C-1.66 64 -2.32 64 -3 64 C-3.06972114 56.68908243 -3.12292288 49.37823735 -3.15543652 42.06705379 C-3.1710469 38.67161698 -3.19219932 35.27640879 -3.22631836 31.88110352 C-3.26535614 27.97154541 -3.27974753 24.06207768 -3.29296875 20.15234375 C-3.30845261 18.94166733 -3.32393646 17.73099091 -3.33988953 16.48362732 C-3.3411371 10.20340566 -3.06371744 5.53730707 0 0 Z " fill="#FCE972" transform="translate(62,129)"/>
<path d="M0 0 C1.19478331 3.58434992 0.93046513 6.08704497 0.66015625 9.85546875 C0.61434921 10.51710526 0.56854218 11.17874176 0.52134705 11.86042786 C0.37400854 13.96989235 0.21836421 16.07865001 0.0625 18.1875 C-0.03895975 19.61910187 -0.13987764 21.05074226 -0.24023438 22.48242188 C-0.48619419 25.98887381 -0.74337804 29.49424713 -1 33 C-9.58 33 -18.16 33 -27 33 C-27 32.01 -27 31.02 -27 30 C-26.01 30 -25.02 30 -24 30 C-24 30.66 -24 31.32 -24 32 C-23.35933594 31.855625 -22.71867187 31.71125 -22.05859375 31.5625 C-15.50045504 30.1550902 -9.5826757 29.21897302 -3 31 C-3.1140575 28.08252927 -3.24080268 25.16655505 -3.375 22.25 C-3.4059375 21.425 -3.436875 20.6 -3.46875 19.75 C-3.50742187 18.95078125 -3.54609375 18.1515625 -3.5859375 17.328125 C-3.63306885 16.22839355 -3.63306885 16.22839355 -3.68115234 15.10644531 C-4.03701198 12.75548285 -4.93787232 11.10866858 -6 9 C-5.06434658 6.35435928 -3.54985485 4.37036624 -2 2 C-1.34 2 -0.68 2 0 2 C0 1.34 0 0.68 0 0 Z " fill="#2F679A" transform="translate(54,131)"/>
<path d="M0 0 C3.83318619 -0.08789644 7.66610928 -0.14069087 11.5 -0.1875 C13.11648437 -0.22520508 13.11648437 -0.22520508 14.765625 -0.26367188 C24.00283258 -0.34815853 30.57358428 1.06668009 37.5234375 7.4453125 C39.93072208 9.97996664 42 12.41363062 42 16 C41.34 16 40.68 16 40 16 C38.61767557 14.37373596 37.28062485 12.7074998 36 11 C35.34 11.66 34.68 12.32 34 13 C33.79375 12.360625 33.5875 11.72125 33.375 11.0625 C32.10461791 8.65074923 32.10461791 8.65074923 28.875 8.25 C27.92625 8.1675 26.9775 8.085 26 8 C25.67 6.35 25.34 4.7 25 3 C16.75 2.67 8.5 2.34 0 2 C0 1.34 0 0.68 0 0 Z " fill="#FCE67E" transform="translate(174,61)"/>
<path d="M0 0 C-4.39435951 2.929573 -7.64137619 3.12469791 -12.87011719 3.11352539 C-14.05103943 3.11344986 -15.23196167 3.11337433 -16.44866943 3.11329651 C-17.71857727 3.10813522 -18.98848511 3.10297394 -20.296875 3.09765625 C-22.25273529 3.09553383 -22.25273529 3.09553383 -24.24810791 3.09336853 C-27.70703055 3.08955867 -31.16591091 3.07974151 -34.62481689 3.06866455 C-38.15742419 3.05841746 -41.69003836 3.05386385 -45.22265625 3.04882812 C-52.14845482 3.03811782 -59.07422538 3.02105984 -66 3 C-66 2.67 -66 2.34 -66 2 C-57.02508155 0.8943941 -48.06524901 0.69956618 -39.03466797 0.49731445 C-36.40189433 0.43810484 -33.76932436 0.37286196 -31.13671875 0.30664062 C-20.75549245 0.05473301 -10.38431348 -0.05737693 0 0 Z " fill="#26608E" transform="translate(152,107)"/>
<path d="M0 0 C1.485 0.2475 1.485 0.2475 3 0.5 C3 0.83 3 1.16 3 1.5 C1.36804688 1.66435547 1.36804688 1.66435547 -0.296875 1.83203125 C-20.90641127 3.65581512 -20.90641127 3.65581512 -37.84765625 14.52734375 C-39.32246735 16.47322473 -40.67016261 18.45345896 -42 20.5 C-42.99176686 21.83946865 -43.98966175 23.17448335 -45 24.5 C-45.33 23.51 -45.66 22.52 -46 21.5 C-44.1875 18.3125 -44.1875 18.3125 -42 15.5 C-41.34 15.5 -40.68 15.5 -40 15.5 C-39.94972656 14.74332031 -39.89945313 13.98664063 -39.84765625 13.20703125 C-39 10.5 -39 10.5 -36.49609375 8.69921875 C-35.48675781 8.20035156 -34.47742188 7.70148438 -33.4375 7.1875 C-32.42558594 6.67574219 -31.41367188 6.16398437 -30.37109375 5.63671875 C-29.58863281 5.26160156 -28.80617188 4.88648437 -28 4.5 C-28 3.84 -28 3.18 -28 2.5 C-25.50159546 1.99061655 -23.00176612 1.49236886 -20.5 1 C-19.80390625 0.85691406 -19.1078125 0.71382813 -18.390625 0.56640625 C-12.23985867 -0.62957609 -6.22914127 -1.03819021 0 0 Z " fill="#356DA0" transform="translate(100,106.5)"/>
<path d="M0 0 C0.99 0.33 1.98 0.66 3 1 C2.98839844 1.97839844 2.97679687 2.95679687 2.96484375 3.96484375 C2.95582031 5.27582031 2.94679687 6.58679688 2.9375 7.9375 C2.93274658 8.62465088 2.92799316 9.31180176 2.9230957 10.01977539 C2.92091211 13.72970682 3.09464337 17.27725469 3.6875 20.9375 C4.34213129 25.59069001 2.92097369 28.77385789 1 33 C-1.24619013 30.60066054 -1.97254928 29.31206206 -2.26464844 25.99145508 C-2.2134082 24.84572021 -2.16216797 23.69998535 -2.109375 22.51953125 C-2.05910156 21.27365234 -2.00882813 20.02777344 -1.95703125 18.74414062 C-1.88871094 17.44669922 -1.82039062 16.14925781 -1.75 14.8125 C-1.69714844 13.50345703 -1.64429688 12.19441406 -1.58984375 10.84570312 C-1.15746792 1.15746792 -1.15746792 1.15746792 0 0 Z " fill="#FCE670" transform="translate(173,64)"/>
<path d="M0 0 C2.31 0 4.62 0 7 0 C7 3 7 3 6 5 C5.78622279 10.60703213 5.78622279 10.60703213 7 16 C4.69 16 2.38 16 0 16 C0 15.34 0 14.68 0 14 C0.99 14 1.98 14 3 14 C1.16343011 11.03268602 1.16343011 11.03268602 -1 9 C-0.9765625 6.8359375 -0.9765625 6.8359375 -0.625 4.375 C-0.51414063 3.55773437 -0.40328125 2.74046875 -0.2890625 1.8984375 C-0.19367188 1.27195313 -0.09828125 0.64546875 0 0 Z " fill="#FCD53F" transform="translate(129,184)"/>
<path d="M0 0 C1.18851563 0.10183594 2.37703125 0.20367187 3.6015625 0.30859375 C4.51679687 0.39238281 5.43203125 0.47617188 6.375 0.5625 C6.375 0.8925 6.375 1.2225 6.375 1.5625 C5.78332031 1.62308594 5.19164063 1.68367188 4.58203125 1.74609375 C2.9532363 1.91880447 1.32561018 2.10283144 -0.30078125 2.296875 C-2.02917271 2.49440545 -3.76404556 2.63678558 -5.5 2.75 C-7.97462364 3.44170857 -7.97462364 3.44170857 -9.375 6.5625 C-9.7875 7.5525 -10.2 8.5425 -10.625 9.5625 C-11.625 10.5625 -11.625 10.5625 -14.6875 10.625 C-15.656875 10.604375 -16.62625 10.58375 -17.625 10.5625 C-16.25810446 7.41180578 -14.76842115 5.55358226 -12.125 3.375 C-11.5165625 2.86582031 -10.908125 2.35664062 -10.28125 1.83203125 C-6.74166195 -0.88109638 -4.37581732 -0.38610153 0 0 Z " fill="#F7E876" transform="translate(81.625,117.4375)"/>
<path d="M0 0 C1.4606285 2.64738916 2 3.89448334 2 7 C2.99 7.66 3.98 8.32 5 9 C-2.59 9 -10.18 9 -18 9 C-17.01 8.01 -16.02 7.02 -15 6 C-13.68 6 -12.36 6 -11 6 C-11 6.66 -11 7.32 -11 8 C-10.34 7.67 -9.68 7.34 -9 7 C-7.00039988 6.960008 -4.99952758 6.95653201 -3 7 C-3 6.01 -3 5.02 -3 4 C-3.66 3.67 -4.32 3.34 -5 3 C-3.35 2.01 -1.7 1.02 0 0 Z " fill="#4480AD" transform="translate(91,40)"/>
<path d="M0 0 C0 0.66 0 1.32 0 2 C-0.81154541 2.11069824 -1.62309082 2.22139648 -2.45922852 2.33544922 C-6.16105822 2.84340358 -9.86176558 3.35912896 -13.5625 3.875 C-15.47772461 4.13603516 -15.47772461 4.13603516 -17.43164062 4.40234375 C-18.67236328 4.57636719 -19.91308594 4.75039062 -21.19140625 4.9296875 C-22.32779541 5.08679199 -23.46418457 5.24389648 -24.63500977 5.40576172 C-28.20601912 6.03638181 -31.53302966 6.94776776 -35 8 C-35 7.34 -35 6.68 -35 6 C-23.64840932 1.86850233 -12.08855769 0 0 0 Z " fill="#5C9AC2" transform="translate(107,7)"/>
<path d="M0 0 C1.13480527 3.60993172 1.10015767 6.9842327 1.0625 10.75 C1.05347656 11.92046875 1.04445313 13.0909375 1.03515625 14.296875 C1.02355469 15.18890625 1.01195312 16.0809375 1 17 C0.01 17.33 -0.98 17.66 -2 18 C-3 17 -3 17 -3.09765625 13.40234375 C-3.0909822 11.91403133 -3.07902183 10.42573568 -3.0625 8.9375 C-3.05798828 8.17888672 -3.05347656 7.42027344 -3.04882812 6.63867188 C-3.0370068 4.75908129 -3.01907078 2.87953101 -3 1 C-2.01 0.67 -1.02 0.34 0 0 Z " fill="#4485B8" transform="translate(7,103)"/>
<path d="M0 0 C-2.12508202 1.06990273 -4.25572301 2.12224807 -6.40234375 3.1484375 C-15.68983742 7.64192442 -19.98968023 11.9779809 -25 21 C-25.66 20.01 -26.32 19.02 -27 18 C-25.7260411 15.96166576 -24.38938077 13.96147874 -23 12 C-22.34 12 -21.68 12 -21 12 C-20.94457031 11.24203125 -20.88914062 10.4840625 -20.83203125 9.703125 C-20 7 -20 7 -17.63671875 5.234375 C-16.66347656 4.74453125 -15.69023438 4.2546875 -14.6875 3.75 C-13.23923828 2.99976562 -13.23923828 2.99976562 -11.76171875 2.234375 C-7.65709075 0.39977465 -4.4860338 -0.12461205 0 0 Z " fill="#2E6897" transform="translate(81,110)"/>
<path d="M0 0 C0.78915298 0.00141495 1.57830597 0.0028299 2.39137268 0.00428772 C4.8872574 0.0098407 7.3830491 0.02238417 9.87890625 0.03515625 C11.5813789 0.04017734 13.28385298 0.04473918 14.98632812 0.04882812 C19.13805613 0.05979467 23.28971547 0.07702634 27.44140625 0.09765625 C27.44140625 0.42765625 27.44140625 0.75765625 27.44140625 1.09765625 C11.60140625 1.59265625 11.60140625 1.59265625 -4.55859375 2.09765625 C-4.55859375 2.42765625 -4.55859375 2.75765625 -4.55859375 3.09765625 C-6.01652259 3.15165361 -7.47502087 3.19044802 -8.93359375 3.22265625 C-9.74570313 3.24585937 -10.5578125 3.2690625 -11.39453125 3.29296875 C-13.55859375 3.09765625 -13.55859375 3.09765625 -15.55859375 1.09765625 C-10.31960147 0.22499413 -5.30536522 -0.03644552 0 0 Z " fill="#FDF638" transform="translate(93.55859375,114.90234375)"/>
<path d="M0 0 C1.1875 1.6875 1.1875 1.6875 2 4 C0.875 6.6875 0.875 6.6875 -1 9 C-2.32 9.33 -3.64 9.66 -5 10 C-6.485 15.94 -6.485 15.94 -8 22 C-8.33 22 -8.66 22 -9 22 C-8.09210201 10.12564991 -8.09210201 10.12564991 -6 5 C-3.4375 3.1875 -3.4375 3.1875 -1 2 C-0.67 1.34 -0.34 0.68 0 0 Z " fill="#4989BB" transform="translate(14,79)"/>
<path d="M0 0 C0.99 0 1.98 0 3 0 C3 0.66 3 1.32 3 2 C3.64066406 1.855625 4.28132813 1.71125 4.94140625 1.5625 C10.00934718 0.4748942 14.79312031 -0.52068797 20 0 C21.32 0.99 22.64 1.98 24 3 C16.08 3 8.16 3 0 3 C0 2.01 0 1.02 0 0 Z " fill="#376E9F" transform="translate(27,161)"/>
<path d="M0 0 C-5.08997057 3.39331372 -9.7182066 3.13576562 -15.703125 3.09765625 C-16.95980988 3.09553383 -16.95980988 3.09553383 -18.24188232 3.09336853 C-20.91129157 3.08778197 -23.5806162 3.07523194 -26.25 3.0625 C-28.06249879 3.05748326 -29.87499889 3.05292066 -31.6875 3.04882812 C-36.12503248 3.03781694 -40.56250191 3.02056155 -45 3 C-45 2.67 -45 2.34 -45 2 C-43.95021973 1.97494385 -42.90043945 1.9498877 -41.81884766 1.92407227 C-37.93118676 1.83003733 -34.04370619 1.7298072 -30.15625 1.62768555 C-28.47237358 1.58432183 -26.78845277 1.5426478 -25.10449219 1.50268555 C-22.68671276 1.44501766 -20.26915705 1.3813135 -17.8515625 1.31640625 C-17.0963028 1.29969376 -16.34104309 1.28298126 -15.56289673 1.26576233 C-10.11595064 1.11068899 -5.56070199 -0.08968874 0 0 Z " fill="#205988" transform="translate(152,107)"/>
<path d="M0 0 C1.32547852 0.07831055 1.32547852 0.07831055 2.67773438 0.15820312 C4.84800408 0.28724619 7.01780693 0.42409956 9.1875 0.5625 C9.5175 1.2225 9.8475 1.8825 10.1875 2.5625 C1.9375 2.5625 -6.3125 2.5625 -14.8125 2.5625 C-14.8125 1.9025 -14.8125 1.2425 -14.8125 0.5625 C-9.85765817 -0.82239368 -5.06660852 -0.32870615 0 0 Z " fill="#F9D73E" transform="translate(115.8125,216.4375)"/>
<path d="M0 0 C1.32 0.33 2.64 0.66 4 1 C4 8.26 4 15.52 4 23 C3.34 23.33 2.68 23.66 2 24 C1.97494385 23.37955811 1.9498877 22.75911621 1.92407227 22.11987305 C1.80803279 19.30887603 1.68534241 16.49820759 1.5625 13.6875 C1.52318359 12.71103516 1.48386719 11.73457031 1.44335938 10.72851562 C1.40146484 9.79072266 1.35957031 8.85292969 1.31640625 7.88671875 C1.27974854 7.02264404 1.24309082 6.15856934 1.20532227 5.26831055 C1.07252646 2.8352174 1.07252646 2.8352174 0 0 Z " fill="#F5D138" transform="translate(163,170)"/>
<path d="M0 0 C0.99 0.33 1.98 0.66 3 1 C2.67 8.26 2.34 15.52 2 23 C1.34 23 0.68 23 0 23 C0 15.41 0 7.82 0 0 Z " fill="#4E88B1" transform="translate(59,31)"/>
<path d="M0 0 C0.66 0.66 1.32 1.32 2 2 C1.23419309 3.89786929 0.46212423 5.79321244 -0.3125 7.6875 C-0.95638672 9.27111328 -0.95638672 9.27111328 -1.61328125 10.88671875 C-2.89815064 13.77134102 -4.20294749 16.40318686 -6 19 C-6.66 19 -7.32 19 -8 19 C-7.690625 18.236875 -7.38125 17.47375 -7.0625 16.6875 C-6.32106407 14.81210323 -5.63771783 12.91315348 -5 11 C-4.34 11 -3.68 11 -3 11 C-2.86722656 10.37351563 -2.73445312 9.74703125 -2.59765625 9.1015625 C-2.42105469 8.28429687 -2.24445313 7.46703125 -2.0625 6.625 C-1.88847656 5.81289062 -1.71445313 5.00078125 -1.53515625 4.1640625 C-1 2 -1 2 0 0 Z " fill="#FCDD5E" transform="translate(219,136)"/>
<path d="M0 0 C0.66 0.33 1.32 0.66 2 1 C1.67 1.66 1.34 2.32 1 3 C1.66 3.33 2.32 3.66 3 4 C3 4.66 3 5.32 3 6 C-2.41390868 5.53328373 -6.20517932 4.75702189 -11 2 C-8 1 -8 1 -5.5 1.5625 C-2.7600266 2.33822518 -2.7600266 2.33822518 0 0 Z " fill="#FBD93F" transform="translate(87,208)"/>
<path d="M0 0 C0.33 0.99 0.66 1.98 1 3 C-0.25942386 4.19959375 -1.53295286 5.38439443 -2.8125 6.5625 C-3.87404297 7.55443359 -3.87404297 7.55443359 -4.95703125 8.56640625 C-5.63121094 9.03949219 -6.30539063 9.51257813 -7 10 C-7.99 9.67 -8.98 9.34 -10 9 C-9.67 8.01 -9.34 7.02 -9 6 C-7.865625 5.690625 -6.73125 5.38125 -5.5625 5.0625 C-1.93740933 4.39099225 -1.93740933 4.39099225 -0.5625 1.875 C-0.376875 1.25625 -0.19125 0.6375 0 0 Z " fill="#F9D852" transform="translate(162,200)"/>
<path d="M0 0 C0 0.33 0 0.66 0 1 C-1.43725871 1.16873478 -2.87481838 1.33490737 -4.3125 1.5 C-5.11300781 1.5928125 -5.91351563 1.685625 -6.73828125 1.78125 C-9 2 -9 2 -12 2 C-12 2.66 -12 3.32 -12 4 C-12.99 4 -13.98 4 -15 4 C-14 1 -14 1 -12 -0.25 C-7.84360004 -1.28909999 -4.1881063 -0.67520668 0 0 Z " fill="#568DBC" transform="translate(38,63)"/>
<path d="M0 0 C0.33 0 0.66 0 1 0 C1.66 5.28 2.32 10.56 3 16 C2.01 15.67 1.02 15.34 0 15 C0 10.05 0 5.1 0 0 Z " fill="#F7E464" transform="translate(172,76)"/>
<path d="M0 0 C0.66 0.33 1.32 0.66 2 1 C2.33 1.99 2.66 2.98 3 4 C5.01508358 4.73323796 5.01508358 4.73323796 7 5 C4.69 5.33 2.38 5.66 0 6 C-0.66 4.68 -1.32 3.36 -2 2 C-1.34 1.34 -0.68 0.68 0 0 Z " fill="#FBD840" transform="translate(93,212)"/>
<path d="M0 0 C1.5625 1.0625 1.5625 1.0625 3 3 C2.8125 6.625 2.8125 6.625 2 10 C1.01 10.495 1.01 10.495 0 11 C-1.125 3.375 -1.125 3.375 0 0 Z " fill="#336E9F" transform="translate(161,25)"/>
<path d="M0 0 C0.33 0.99 0.66 1.98 1 3 C-2.06117568 5.62386487 -2.73173127 6 -7 6 C-6.875 4.125 -6.875 4.125 -6 2 C-2.9375 0.75 -2.9375 0.75 0 0 Z " fill="#F9DC47" transform="translate(209,156)"/>
<path d="M0 0 C0.99 0.33 1.98 0.66 3 1 C2.34 1 1.68 1 1 1 C1 1.66 1 2.32 1 3 C1.99 3 2.98 3 4 3 C3.67 3.99 3.34 4.98 3 6 C1.35 6 -0.3 6 -2 6 C-2 4.35 -2 2.7 -2 1 C-1.34 0.67 -0.68 0.34 0 0 Z " fill="#FEE869" transform="translate(202,63)"/>
<path d="M0 0 C0.625 1.875 0.625 1.875 1 4 C0.34 4.66 -0.32 5.32 -1 6 C-3.125 5.625 -3.125 5.625 -5 5 C-3.35 3.35 -1.7 1.7 0 0 Z " fill="#FDE76F" transform="translate(71,122)"/>
<path d="M0 0 C0.99 0.33 1.98 0.66 3 1 C-1.39453125 5.00390625 -1.39453125 5.00390625 -3 6 C-3.99 5.67 -4.98 5.34 -6 5 C-1.60546875 0.99609375 -1.60546875 0.99609375 0 0 Z " fill="#5990BB" transform="translate(19,67)"/>
<path d="M0 0 C2.78211944 0.37596209 4.5879284 0.67318459 6.8125 2.4375 C8 4 8 4 8 6 C7.01 5.67 6.02 5.34 5 5 C5 4.34 5 3.68 5 3 C3.35 2.67 1.7 2.34 0 2 C0 1.34 0 0.68 0 0 Z " fill="#FBE985" transform="translate(203,64)"/>
<path d="M0 0 C0.33 0 0.66 0 1 0 C1.36625971 4.51720311 1.36625971 4.51720311 -0.375 6.8125 C-2 8 -2 8 -4 8 C-3.34 6.02 -2.68 4.04 -2 2 C-1.34 2 -0.68 2 0 2 C0 1.34 0 0.68 0 0 Z " fill="#FAD423" transform="translate(154,192)"/>
<path d="M0 0 C1.485 0.99 1.485 0.99 3 2 C2.67 3.65 2.34 5.3 2 7 C1.34 7 0.68 7 0 7 C-0.38133299 5.0085944 -0.71325582 3.00720923 -1 1 C-0.67 0.67 -0.34 0.34 0 0 Z " fill="#F5CD39" transform="translate(152,187)"/>
<path d="M0 0 C1.32 0.66 2.64 1.32 4 2 C4 2.66 4 3.32 4 4 C1.36 4 -1.28 4 -4 4 C-2.68 2.68 -1.36 1.36 0 0 Z " fill="#FEE36C" transform="translate(164,108)"/>
</svg>
