<?xml version="1.0" encoding="UTF-8"?>
<svg version="1.1" xmlns="http://www.w3.org/2000/svg" width="225" height="225">
<path d="M0 0 C4.203056 2.37865257 7.24477615 5.47250669 9 10 C9.89705493 17.30160989 9.59411431 24.0276514 5 30 C0.69580342 34.09923484 -2.94442594 34.44245417 -8.6328125 34.43359375 C-11 34 -11 34 -15 31 C-15.33 36.94 -15.66 42.88 -16 49 C-18.64 49 -21.28 49 -24 49 C-25.57300328 47.42699672 -25.12725504 45.86315955 -25.12939453 43.6796875 C-25.13254669 42.76203613 -25.13569885 41.84438477 -25.13894653 40.89892578 C-25.1369223 39.90103027 -25.13489807 38.90313477 -25.1328125 37.875 C-25.13376923 36.85776855 -25.13472595 35.84053711 -25.13571167 34.79248047 C-25.13639361 32.63704364 -25.13453835 30.48160478 -25.13037109 28.32617188 C-25.12502305 25.01427629 -25.13031563 21.70251633 -25.13671875 18.390625 C-25.13605797 16.30208303 -25.13477681 14.21354115 -25.1328125 12.125 C-25.13483673 11.12710449 -25.13686096 10.12920898 -25.13894653 9.10107422 C-25.13579437 8.18342285 -25.13264221 7.26577148 -25.12939453 6.3203125 C-25.12859894 5.50836426 -25.12780334 4.69641602 -25.12698364 3.85986328 C-25 2 -25 2 -24 1 C-21.32941149 0.85884839 -18.67567762 0.95752893 -16 1 C-15.67 1.66 -15.34 2.32 -15 3 C-14.38125 2.505 -13.7625 2.01 -13.125 1.5 C-8.69354624 -0.62709781 -4.82719933 -0.93987526 0 0 Z M-13.3125 7.375 C-15.88541479 11.3773119 -16.2093615 15.29297602 -16 20 C-15.21183503 22.94107195 -14.20136397 25.79863603 -12 28 C-8.62642666 28.50070321 -8.62642666 28.50070321 -5 28 C-2.05308848 25.44084 -1.14045638 23.48691544 -0.0625 19.75 C0.01505093 15.09694414 -0.95990301 11.18804052 -3 7 C-6.63778738 5.18110631 -9.83083161 5.3048188 -13.3125 7.375 Z " fill="#191919" transform="translate(52,97)"/>
<path d="M0 0 C2.97 0 5.94 0 9 0 C9.33 8.25 9.66 16.5 10 25 C13.3 21.37 16.6 17.74 20 14 C22.31 14.66 24.62 15.32 27 16 C25.54718935 21.32697239 21.91888622 24.36402802 18 28 C19.934683 32.40087232 22.9608553 35.99632411 25.8984375 39.75390625 C29 43.7919795 29 43.7919795 29 46 C24.60153265 48.07705402 24.60153265 48.07705402 21.98925781 47.74243164 C18.56641105 46.46495533 16.82755912 43.30320292 14.75 40.4375 C14.29109375 39.82197266 13.8321875 39.20644531 13.359375 38.57226562 C12.23028585 37.05505208 11.11388857 35.52840817 10 34 C9.93941406 34.92683594 9.87882813 35.85367188 9.81640625 36.80859375 C9.73261719 38.00613281 9.64882812 39.20367187 9.5625 40.4375 C9.48128906 41.63246094 9.40007812 42.82742187 9.31640625 44.05859375 C9 47 9 47 8 48 C5.36 48 2.72 48 0 48 C0 32.16 0 16.32 0 0 Z " fill="#141414" transform="translate(150,84)"/>
<path d="M0 0 C4.56182205 4.07652183 5.42875455 7.06375861 6 13 C6.12931804 16.45986752 6.14003013 19.91306053 6.125 23.375 C6.13080078 24.74591797 6.13080078 24.74591797 6.13671875 26.14453125 C6.13542969 27.01207031 6.13414062 27.87960938 6.1328125 28.7734375 C6.13168457 29.56153809 6.13055664 30.34963867 6.12939453 31.16162109 C6 33 6 33 5 34 C2.32941149 34.14115161 -0.32432238 34.04247107 -3 34 C-4.3308911 31.33821779 -4.11268993 29.31260604 -4.09765625 26.3359375 C-4.09443359 25.21445313 -4.09121094 24.09296875 -4.08789062 22.9375 C-4.07951172 21.761875 -4.07113281 20.58625 -4.0625 19.375 C-4.05798828 18.19164063 -4.05347656 17.00828125 -4.04882812 15.7890625 C-4.03701467 12.85932493 -4.02054258 9.92968728 -4 7 C-5.8871875 6.938125 -5.8871875 6.938125 -7.8125 6.875 C-8.52019531 6.85179688 -9.22789062 6.82859375 -9.95703125 6.8046875 C-12.31359719 6.86745538 -12.31359719 6.86745538 -15 9 C-15.9731681 11.9195043 -16.1929546 14.05444951 -16.31640625 17.10546875 C-16.35830078 18.08837891 -16.40019531 19.07128906 -16.44335938 20.08398438 C-16.48267578 21.10814453 -16.52199219 22.13230469 -16.5625 23.1875 C-16.60568359 24.22326172 -16.64886719 25.25902344 -16.69335938 26.32617188 C-16.79944366 28.8839819 -16.90150146 31.44188845 -17 34 C-23.15234375 34.09765625 -23.15234375 34.09765625 -25 34 C-26.67673649 32.32326351 -26.12787817 30.27144924 -26.13894653 28.03344727 C-26.1369223 27.34178467 -26.13489807 26.65012207 -26.1328125 25.9375 C-26.13376923 25.23101318 -26.13472595 24.52452637 -26.13571167 23.79663086 C-26.13639333 22.30029207 -26.13454005 20.80395033 -26.13037109 19.30761719 C-26.12502257 17.00969843 -26.13031651 14.71197514 -26.13671875 12.4140625 C-26.13605797 10.96354123 -26.1347768 9.51302009 -26.1328125 8.0625 C-26.13483673 7.3708374 -26.13686096 6.6791748 -26.13894653 5.96655273 C-26.11495224 1.11495224 -26.11495224 1.11495224 -25 0 C-22.32941149 -0.14115161 -19.67567762 -0.04247107 -17 0 C-16.67 0.99 -16.34 1.98 -16 3 C-15.13375 2.2884375 -15.13375 2.2884375 -14.25 1.5625 C-9.80277795 -1.52584865 -5.16281391 -1.64923222 0 0 Z " fill="#1C1C1C" transform="translate(139,98)"/>
<path d="M0 0 C6.15234375 -0.09765625 6.15234375 -0.09765625 8 0 C9.74506615 1.74506615 9.23282784 4.19039143 9.31640625 6.56640625 C9.37924805 8.2534668 9.37924805 8.2534668 9.44335938 9.97460938 C9.48267578 11.15861328 9.52199219 12.34261719 9.5625 13.5625 C9.60568359 14.75037109 9.64886719 15.93824219 9.69335938 17.16210938 C9.79983546 20.10794784 9.90184841 23.0538743 10 26 C13.94567184 27.20681069 16.18004171 26.61287128 20 25 C21.25838557 22.48322887 21.20818973 20.58706712 21.31640625 17.7734375 C21.35830078 16.7421875 21.40019531 15.7109375 21.44335938 14.6484375 C21.48267578 13.56820312 21.52199219 12.48796875 21.5625 11.375 C21.60568359 10.28703125 21.64886719 9.1990625 21.69335938 8.078125 C21.7996453 5.3855483 21.90168057 2.69287747 22 0 C24.97 0 27.94 0 31 0 C31.02465288 4.68139254 31.04283739 9.36274759 31.05493164 14.04418945 C31.05997157 15.63794614 31.0668035 17.23169819 31.07543945 18.82543945 C31.08751999 21.11150253 31.09323155 23.39750467 31.09765625 25.68359375 C31.10281754 26.40026718 31.10797882 27.11694061 31.11329651 27.85533142 C31.11349263 29.57063672 31.06192007 31.28581266 31 33 C30 34 30 34 26.5625 34.25 C25.386875 34.1675 24.21125 34.085 23 34 C22.34 33.01 21.68 32.02 21 31 C20.360625 31.495 19.72125 31.99 19.0625 32.5 C14.94589738 34.51629516 11.50886695 34.60554656 7 34 C4.10863659 32.76963259 2.59167669 31.90911757 0.88330078 29.28417969 C-0.26389405 26.31758077 -0.22529499 23.88126911 -0.1953125 20.703125 C-0.18886719 19.49785156 -0.18242188 18.29257813 -0.17578125 17.05078125 C-0.15064453 15.16939453 -0.15064453 15.16939453 -0.125 13.25 C-0.11597656 11.98027344 -0.10695313 10.71054688 -0.09765625 9.40234375 C-0.07409005 6.26803907 -0.04118832 3.13411459 0 0 Z " fill="#1C1C1C" transform="translate(76,98)"/>
<path d="M0 0 C4.47766749 0.61975663 8.46430679 1.74623962 12.7109375 3.28515625 C13.32393707 3.50570175 13.93693665 3.72624725 14.56851196 3.95347595 C16.50577673 4.65169956 18.44038706 5.35696647 20.375 6.0625 C21.69644485 6.54018336 23.01805796 7.0174015 24.33984375 7.49414062 C27.56157929 8.65819836 30.78152576 9.8269617 34 11 C34.1352403 12.60184626 34.23210847 14.20696626 34.3125 15.8125 C34.37050781 16.70582031 34.42851562 17.59914063 34.48828125 18.51953125 C34 21 34 21 31.84399414 22.65551758 C30.90547607 23.09919678 29.96695801 23.54287598 29 24 C28.07630615 24.44561279 27.1526123 24.89122559 26.20092773 25.3503418 C22.94977626 26.80374514 19.69583763 28.25027082 16.4375 29.6875 C15.30119141 30.19861328 14.16488281 30.70972656 12.99414062 31.23632812 C11.90166016 31.71908203 10.80917969 32.20183594 9.68359375 32.69921875 C8.68900146 33.14096436 7.69440918 33.58270996 6.66967773 34.0378418 C4 35 4 35 0 35 C-0.3125 32.1875 -0.3125 32.1875 0 29 C4.5272038 25.60459715 10.15949668 23.59584494 15.3125 21.3125 C16.24384766 20.89677734 17.17519531 20.48105469 18.13476562 20.05273438 C20.42192696 19.03230855 22.71035095 18.01482847 25 17 C22.25888693 15.17259129 20.23923153 14.30469692 17.1484375 13.30859375 C15.74851563 12.85129883 15.74851563 12.85129883 14.3203125 12.38476562 C13.34835938 12.07216797 12.37640625 11.75957031 11.375 11.4375 C9.44444417 10.81387966 7.51470779 10.18771481 5.5859375 9.55859375 C4.7304834 9.28329834 3.8750293 9.00800293 2.99365234 8.72436523 C1 8 1 8 0 7 C-0.04092937 4.66702567 -0.04241723 2.33294775 0 0 Z " fill="#72B533" transform="translate(187,96)"/>
<path d="M0 0 C2.30859375 1.01953125 2.30859375 1.01953125 4 2 C3.67 3.65 3.34 5.3 3 7 C0.03 7 -2.94 7 -6 7 C-4.90521661 11.37913354 -4.63018971 11.61996615 -1.125 13.9375 C2.16935799 16.29737224 4.53437662 18.09167098 6 22 C5.92720836 25.5667905 5.4559814 27.3920248 3.3125 30.25 C-1.62933602 33.9897678 -5.99200333 34.31487053 -11.94140625 33.4921875 C-14.49950169 32.88057455 -16.14447369 31.85552631 -18 30 C-17.34 28.35 -16.68 26.7 -16 25 C-15.113125 25.350625 -14.22625 25.70125 -13.3125 26.0625 C-9.93796874 27.01755602 -8.30313848 26.97151132 -5 26 C-5.4627976 21.73840544 -7.78281513 20.22982297 -11 17.625 C-11.9075 16.89539063 -12.815 16.16578125 -13.75 15.4140625 C-16.41700392 12.55258955 -16.79895873 10.856818 -17 7 C-16.20324163 4.21134569 -15.18157687 3.15887976 -13 1.25 C-8.71474265 -0.5355239 -4.58628206 -0.57421743 0 0 Z " fill="#161616" transform="translate(18,98)"/>
<path d="M0 0 C2.05078125 0.03255208 4.1015625 0.06510417 6.15234375 0.09765625 C6.1776132 6.77285965 6.19517643 13.44805082 6.20727539 20.12329102 C6.212317 22.39608216 6.21915012 24.66887005 6.2277832 26.94165039 C6.23985636 30.20069176 6.24557362 33.45969042 6.25 36.71875 C6.25516129 37.74165634 6.26032257 38.76456268 6.26564026 39.81846619 C6.26571579 40.759366 6.26579132 41.70026581 6.26586914 42.66967773 C6.26808975 43.50240707 6.27031036 44.33513641 6.27259827 45.19309998 C6.15234375 47.09765625 6.15234375 47.09765625 5.15234375 48.09765625 C2.81936942 48.13858562 0.4852915 48.14007348 -1.84765625 48.09765625 C-3.24594558 8.61829589 -3.24594558 8.61829589 -2.84765625 1.09765625 C-1.84765625 0.09765625 -1.84765625 0.09765625 0 0 Z " fill="#212121" transform="translate(64.84765625,83.90234375)"/>
<path d="M0 0 C2.97 0 5.94 0 9 0 C8.01 0.495 8.01 0.495 7 1 C7 9.58 7 18.16 7 27 C7.66 27 8.32 27 9 27 C9 28.32 9 29.64 9 31 C8.34 31 7.68 31 7 31 C7 35.95 7 40.9 7 46 C5.02 46 3.04 46 1 46 C0.67 30.82 0.34 15.64 0 0 Z " fill="#202020" transform="translate(150,84)"/>
<path d="M0 0 C2.05078125 0.03255208 4.1015625 0.06510417 6.15234375 0.09765625 C6.1776132 6.77285965 6.19517643 13.44805082 6.20727539 20.12329102 C6.212317 22.39608216 6.21915012 24.66887005 6.2277832 26.94165039 C6.23985636 30.20069176 6.24557362 33.45969042 6.25 36.71875 C6.25516129 37.74165634 6.26032257 38.76456268 6.26564026 39.81846619 C6.26571579 40.759366 6.26579132 41.70026581 6.26586914 42.66967773 C6.26808975 43.50240707 6.27031036 44.33513641 6.27259827 45.19309998 C6.15234375 47.09765625 6.15234375 47.09765625 5.15234375 48.09765625 C2.81936942 48.13858562 0.4852915 48.14007348 -1.84765625 48.09765625 C-1.51765625 47.43765625 -1.18765625 46.77765625 -0.84765625 46.09765625 C0.80234375 46.09765625 2.45234375 46.09765625 4.15234375 46.09765625 C4.15234375 31.57765625 4.15234375 17.05765625 4.15234375 2.09765625 C2.50234375 2.09765625 0.85234375 2.09765625 -0.84765625 2.09765625 C-0.84765625 7.70765625 -0.84765625 13.31765625 -0.84765625 19.09765625 C-2.84765625 17.09765625 -2.84765625 17.09765625 -3.078125 13.4375 C-3.07413358 11.96998761 -3.05937783 10.50247416 -3.03515625 9.03515625 C-3.03451172 8.28943359 -3.03386719 7.54371094 -3.03320312 6.77539062 C-2.97910558 0.15745801 -2.97910558 0.15745801 0 0 Z " fill="#010101" transform="translate(64.84765625,83.90234375)"/>
<path d="M0 0 C2.97 0 5.94 0 9 0 C9.02465288 4.68139254 9.04283739 9.36274759 9.05493164 14.04418945 C9.05997157 15.63794614 9.0668035 17.23169819 9.07543945 18.82543945 C9.08751999 21.11150253 9.09323155 23.39750467 9.09765625 25.68359375 C9.10281754 26.40026718 9.10797882 27.11694061 9.11329651 27.85533142 C9.11349263 29.57063672 9.06192007 31.28581266 9 33 C8 34 8 34 4.5625 34.25 C3.386875 34.1675 2.21125 34.085 1 34 C0.34 33.01 -0.32 32.02 -1 31 C-1.66 31.33 -2.32 31.66 -3 32 C-2.34 30.68 -1.68 29.36 -1 28 C-0.01 28.33 0.98 28.66 2 29 C2 29.99 2 30.98 2 32 C3.65 32 5.3 32 7 32 C7 22.1 7 12.2 7 2 C5.35 2 3.7 2 2 2 C2 8.6 2 15.2 2 22 C1.34 22 0.68 22 0 22 C0 14.74 0 7.48 0 0 Z " fill="#060606" transform="translate(98,98)"/>
<path d="M0 0 C0.33 0 0.66 0 1 0 C1 14.85 1 29.7 1 45 C2.98 45 4.96 45 7 45 C7 40.05 7 35.1 7 30 C7.99 29.67 8.98 29.34 10 29 C10.33 29.66 10.66 30.32 11 31 C10.34 31 9.68 31 9 31 C9.01160156 32.07121094 9.02320313 33.14242187 9.03515625 34.24609375 C9.04453299 35.64322743 9.05363331 37.04036299 9.0625 38.4375 C9.07087891 39.14455078 9.07925781 39.85160156 9.08789062 40.58007812 C9.09653588 42.38693559 9.05220011 44.19387603 9 46 C8.505 46.495 8.505 46.495 8 47 C5.36 47 2.72 47 0 47 C0 31.49 0 15.98 0 0 Z " fill="#020202" transform="translate(150,85)"/>
<path d="M0 0 C2.05078125 0.03255208 4.1015625 0.06510417 6.15234375 0.09765625 C5.82234375 0.75765625 5.49234375 1.41765625 5.15234375 2.09765625 C3.17234375 2.09765625 1.19234375 2.09765625 -0.84765625 2.09765625 C-0.84765625 11.99765625 -0.84765625 21.89765625 -0.84765625 32.09765625 C1.13234375 32.09765625 3.11234375 32.09765625 5.15234375 32.09765625 C5.48234375 32.75765625 5.81234375 33.41765625 6.15234375 34.09765625 C0 34.1953125 0 34.1953125 -1.84765625 34.09765625 C-3.52439274 32.42091976 -2.97553442 30.36910549 -2.98660278 28.13110352 C-2.98457855 27.43944092 -2.98255432 26.74777832 -2.98046875 26.03515625 C-2.98142548 25.32866943 -2.9823822 24.62218262 -2.98336792 23.89428711 C-2.98404958 22.39794832 -2.9821963 20.90160658 -2.97802734 19.40527344 C-2.97267882 17.10735468 -2.97797276 14.80963139 -2.984375 12.51171875 C-2.98371422 11.06119748 -2.98243305 9.61067634 -2.98046875 8.16015625 C-2.98249298 7.46849365 -2.98451721 6.77683105 -2.98660278 6.06420898 C-2.95738441 0.15630996 -2.95738441 0.15630996 0 0 Z " fill="#010101" transform="translate(115.84765625,97.90234375)"/>
<path d="M0 0 C6.15234375 -0.09765625 6.15234375 -0.09765625 8 0 C9.74506615 1.74506615 9.23282784 4.19039143 9.31640625 6.56640625 C9.37924805 8.2534668 9.37924805 8.2534668 9.44335938 9.97460938 C9.48267578 11.15861328 9.52199219 12.34261719 9.5625 13.5625 C9.60568359 14.75037109 9.64886719 15.93824219 9.69335938 17.16210938 C9.79983546 20.10794784 9.90184841 23.0538743 10 26 C10.99 26.33 11.98 26.66 13 27 C13 27.66 13 28.32 13 29 C8.125 27.25 8.125 27.25 7 25 C6.91550372 23.2595583 6.89276976 21.51590278 6.90234375 19.7734375 C6.90556641 18.7421875 6.90878906 17.7109375 6.91210938 16.6484375 C6.92048828 15.56820312 6.92886719 14.48796875 6.9375 13.375 C6.94201172 12.28703125 6.94652344 11.1990625 6.95117188 10.078125 C6.96298224 7.38536211 6.97945222 4.69270812 7 2 C5.02 2 3.04 2 1 2 C0.67 1.34 0.34 0.68 0 0 Z " fill="#010101" transform="translate(76,98)"/>
<path d="M0 0 C0.33 0 0.66 0 1 0 C1.02888146 3.31248187 1.04675799 6.62493167 1.0625 9.9375 C1.07087891 10.88302734 1.07925781 11.82855469 1.08789062 12.80273438 C1.09111328 13.70185547 1.09433594 14.60097656 1.09765625 15.52734375 C1.10289307 16.35999756 1.10812988 17.19265137 1.11352539 18.05053711 C1 20 1 20 0 21 C-2.67058851 21.14115161 -5.32432238 21.04247107 -8 21 C-8 20.34 -8 19.68 -8 19 C-5.69 19 -3.38 19 -1 19 C-1.01160156 17.96359375 -1.02320313 16.9271875 -1.03515625 15.859375 C-1.04453837 14.48958514 -1.05363812 13.11979332 -1.0625 11.75 C-1.07506836 10.72712891 -1.07506836 10.72712891 -1.08789062 9.68359375 C-1.10428392 6.30657446 -1.05628768 3.22708361 0 0 Z " fill="#000000" transform="translate(144,111)"/>
<path d="M0 0 C0.79921875 0.01804687 1.5984375 0.03609375 2.421875 0.0546875 C3.02515625 0.07789062 3.6284375 0.10109375 4.25 0.125 C3.92 0.785 3.59 1.445 3.25 2.125 C0.92843403 2.53229228 -1.4068787 2.86938677 -3.75 3.125 C-2.43 3.455 -1.11 3.785 0.25 4.125 C0.25 4.785 0.25 5.445 0.25 6.125 C-2.06 6.455 -4.37 6.785 -6.75 7.125 C-7.08 6.135 -7.41 5.145 -7.75 4.125 C-8.08 3.465 -8.41 2.805 -8.75 2.125 C-5.68753253 0.34090198 -3.52920727 -0.10380021 0 0 Z " fill="#101010" transform="translate(46.75,96.875)"/>
<path d="M0 0 C0.66 0 1.32 0 2 0 C0.75023244 3.65316671 0.32901247 4.78065836 -3 7 C-6.1875 7.125 -6.1875 7.125 -9 7 C-9 6.34 -9 5.68 -9 5 C-7.88625 4.731875 -6.7725 4.46375 -5.625 4.1875 C-1.78159049 3.34190981 -1.78159049 3.34190981 0 0 Z " fill="#0B0B0B" transform="translate(50,120)"/>
<path d="M0 0 C-0.33 0.78375 -0.66 1.5675 -1 2.375 C-2.11866511 4.84332497 -2.11866511 4.84332497 -2 7 C-3.65 7.66 -5.3 8.32 -7 9 C-4.83333333 0 -4.83333333 0 0 0 Z " fill="#0D0D0D" transform="translate(129,98)"/>
<path d="M0 0 C2.02045442 0.60183749 4.02111039 1.27306096 6 2 C6.33 2.66 6.66 3.32 7 4 C4.03 3.505 4.03 3.505 1 3 C0.67 4.32 0.34 5.64 0 7 C-0.66 5.68 -1.32 4.36 -2 3 C-1.34 2.01 -0.68 1.02 0 0 Z " fill="#0B0B0B" transform="translate(2,123)"/>
<path d="M0 0 C0.33 0.66 0.66 1.32 1 2 C0.01 2.33 -0.98 2.66 -2 3 C-1.67 4.98 -1.34 6.96 -1 9 C-2.32 9 -3.64 9 -5 9 C-5.3125 6.1875 -5.3125 6.1875 -5 3 C-2.5 1.125 -2.5 1.125 0 0 Z " fill="#64B025" transform="translate(192,122)"/>
<path d="M0 0 C1.32 0.33 2.64 0.66 4 1 C3.34 3.31 2.68 5.62 2 8 C1.34 7.67 0.68 7.34 0 7 C0 4.69 0 2.38 0 0 Z " fill="#63B022" transform="translate(187,96)"/>
</svg>
