<?xml version="1.0" encoding="UTF-8"?>
<svg version="1.1" xmlns="http://www.w3.org/2000/svg" width="298" height="182">
<path d="M0 0 C5.70595499 4.69320973 9.86136214 9.29193085 13 16 C14.83277998 19.83928811 14.83277998 19.83928811 18.3046875 21.99609375 C20.83025862 22.48215776 20.83025862 22.48215776 23.2421875 22.55859375 C25.97641031 22.99622431 27.20310985 23.63154013 29.54208374 24.99743652 C34.41187617 27.47490748 38.69959843 27.54965314 44.08447266 27.48242188 C45.54943428 27.48829063 45.54943428 27.48829063 47.04399109 27.49427795 C49.15173323 27.50022896 51.25951669 27.49712654 53.36723709 27.4858551 C56.70510121 27.46853708 60.04210364 27.47613097 63.37997437 27.4901123 C70.46170892 27.51540451 77.54323866 27.50994983 84.625 27.5 C92.84077835 27.48846938 101.05613666 27.48961131 109.27186203 27.52406311 C112.55693892 27.53115368 115.84134905 27.51448661 119.12637329 27.49694824 C121.14235798 27.50265576 123.15833993 27.50947287 125.17431641 27.51757812 C126.53974327 27.50060631 126.53974327 27.50060631 127.93275452 27.48329163 C133.57504313 27.53749503 136.67281998 28.29766113 141 32 C142.36839363 34.73678725 142.21634818 37.04264424 142.31640625 40.1015625 C142.37924805 41.91914062 142.37924805 41.91914062 142.44335938 43.7734375 C142.48267578 45.04445312 142.52199219 46.31546875 142.5625 47.625 C142.60568359 48.90375 142.64886719 50.1825 142.69335938 51.5 C142.79969886 54.66655348 142.90172833 57.83318753 143 61 C144.05912598 60.97905273 145.11825195 60.95810547 146.20947266 60.93652344 C150.15659957 60.86386615 154.10366792 60.81810746 158.05126953 60.78027344 C159.75644894 60.76021631 161.46156006 60.73296343 163.16650391 60.69824219 C165.62419524 60.64946139 168.08097366 60.62697281 170.5390625 60.609375 C171.29555084 60.58872986 172.05203918 60.56808472 172.83145142 60.54681396 C177.9581924 60.54466358 181.0989313 61.3740678 185 65 C187.33969736 70.42284996 187.29294264 75.81789513 187.265625 81.625 C187.26753845 82.53072754 187.2694519 83.43645508 187.27142334 84.36962891 C187.27277826 86.27571899 187.26913045 88.18181852 187.26074219 90.08789062 C187.25003284 92.991098 187.26066111 95.89368667 187.2734375 98.796875 C187.27211578 100.65625135 187.26955314 102.51562733 187.265625 104.375 C187.26967346 105.23561035 187.27372192 106.0962207 187.27789307 106.98291016 C187.23100005 113.06551814 187.04665551 118.53873427 182.9934082 123.41308594 C178.67369332 125.70312319 174.92103253 125.49930633 170.10546875 125.390625 C168.68443596 125.38213531 168.68443596 125.38213531 167.23469543 125.37347412 C164.21844265 125.35114084 161.20339178 125.3009498 158.1875 125.25 C156.13868907 125.22993107 154.08985946 125.21168099 152.04101562 125.1953125 C147.02688291 125.15128594 142.01364501 125.0822791 137 125 C137.02356567 126.23302856 137.02356567 126.23302856 137.04760742 127.4909668 C137.11005073 131.22307428 137.14902136 134.95507172 137.1875 138.6875 C137.21263672 139.98107422 137.23777344 141.27464844 137.26367188 142.60742188 C137.27817383 144.47817383 137.27817383 144.47817383 137.29296875 146.38671875 C137.3086792 147.53358154 137.32438965 148.68044434 137.34057617 149.86206055 C136.873894 154.16189277 135.4123061 156.62847902 132.33401489 159.61787415 C129.10616049 161.52930198 126.66427312 161.3811703 122.92407227 161.38818359 C122.21950897 161.39344055 121.51494568 161.39869751 120.78903198 161.40411377 C118.46459654 161.41729591 116.14084843 161.40858154 113.81640625 161.3984375 C112.19742197 161.40045899 110.57843857 161.40337105 108.9594574 161.40713501 C105.56752853 161.41155612 102.17583682 161.40513515 98.78393555 161.39111328 C94.44158542 161.37403502 90.09979213 161.38385503 85.7574625 161.40183067 C82.41423876 161.41268603 79.07114639 161.40921393 75.72791862 161.4014473 C74.12717561 161.39944942 72.52642058 161.40189008 70.9256916 161.40888596 C68.68524858 161.41652797 66.44569897 161.40485824 64.20532227 161.38818359 C62.93165298 161.38579681 61.6579837 161.38341003 60.34571838 161.38095093 C56.7261925 160.96882367 54.87419012 160.19825056 52 158 C48.46244265 152.69366398 48.96195807 147.15645306 49 141 C45.4356139 140.93541316 41.87712238 140.95972178 38.3125 141 C37.30509766 140.98066406 36.29769531 140.96132812 35.25976562 140.94140625 C29.69535373 140.9102968 29.69535373 140.9102968 25.24755859 143.8125 C23.89004854 145.95792447 23.89004854 145.95792447 22.89135742 148.1875 C22 150 22 150 20 151 C17.40024068 151.17778623 14.85175193 151.27753022 12.25 151.3125 C11.54617187 151.34150391 10.84234375 151.37050781 10.1171875 151.40039062 C4.96317431 151.4626603 2.03520029 150.46295698 -2 147 C-2.47824219 146.1028125 -2.95648438 145.205625 -3.44921875 144.28125 C-3.96097656 143.5284375 -4.47273438 142.775625 -5 142 C-8.21584345 141.36238094 -8.21584345 141.36238094 -11.8125 141.5 C-19.7095653 141.20661058 -19.7095653 141.20661058 -22.75 138.75 C-27.96023919 132.38192988 -27.1665253 126.34233258 -26.8125 118.5 C-26.78091797 117.37207031 -26.74933594 116.24414062 -26.71679688 115.08203125 C-26.67232422 113.99277344 -26.62785156 112.90351562 -26.58203125 111.78125 C-26.52366089 110.2972168 -26.52366089 110.2972168 -26.46411133 108.78320312 C-26 106 -26 106 -24.33862305 103.45117188 C-22.63695222 101.01897032 -22.63695222 101.01897032 -23.8125 98.1875 C-24.204375 97.465625 -24.59625 96.74375 -25 96 C-25.82446625 95.99786247 -25.82446625 95.99786247 -26.66558838 95.99568176 C-32.44226517 95.97583026 -38.21790707 95.92123119 -43.99414062 95.84741211 C-46.14315335 95.82436856 -48.29227683 95.80986879 -50.44140625 95.80444336 C-66.44150892 95.75611591 -78.69368185 95.24466092 -90.80078125 83.60546875 C-98.45413176 74.53835545 -100.84348936 64.59016864 -100 53 C-98.11237728 42.41011658 -92.98506462 33.76120872 -84.3046875 27.43359375 C-82.15645982 26.09732331 -80.08480932 25.14345023 -77.75 24.1875 C-73.31846054 22.14150437 -72.29730267 19.04120805 -70.39453125 14.7265625 C-64.78236985 3.75376515 -54.51553023 -2.91800545 -43.359375 -7.23828125 C-28.30333029 -12.09909039 -12.84984278 -8.68876673 0 0 Z " fill="#373F45" transform="translate(106,15)"/>
<path d="M0 0 C6.29540379 4.88404483 12.2468832 11.28123542 14.6484375 19.0546875 C14.7421875 21.7890625 14.7421875 21.7890625 14.6484375 24.0546875 C15.39867188 23.99667969 16.14890625 23.93867187 16.921875 23.87890625 C24.67842454 23.53699286 30.2781207 24.46673913 36.6484375 29.0546875 C41.43996115 33.54396291 45.43485193 37.95769675 45.8984375 44.6796875 C45.6484375 48.0546875 45.6484375 48.0546875 43.6484375 50.0546875 C41.671875 49.9765625 41.671875 49.9765625 39.6484375 49.0546875 C38.375 46.9453125 38.375 46.9453125 37.2734375 44.3046875 C34.44264573 38.20759753 30.92981679 34.70374064 24.6484375 32.0546875 C18.46666598 31.26921488 14.10954321 32.0066285 8.6484375 35.0546875 C5.8359375 35.3046875 5.8359375 35.3046875 3.6484375 35.0546875 C2.6484375 34.0546875 2.6484375 34.0546875 2.3984375 31.6171875 C2.4809375 30.7715625 2.5634375 29.9259375 2.6484375 29.0546875 C3.6384375 28.3946875 4.6284375 27.7346875 5.6484375 27.0546875 C6.51227277 22.35158434 5.59659067 19.44125202 3.1484375 15.4921875 C-2.05388881 8.34051176 -8.62508838 3.763269 -17.3515625 2.0546875 C-26.34669942 0.98635012 -34.36168057 2.80927253 -41.6640625 8.3046875 C-46.02298269 12.76497793 -49.75265153 17.66630383 -50.3515625 24.0546875 C-49.4646875 24.3228125 -48.5778125 24.5909375 -47.6640625 24.8671875 C-44.49785345 26.00224357 -41.98658643 26.9621685 -39.3515625 29.0546875 C-38.9765625 31.6796875 -38.9765625 31.6796875 -39.3515625 34.0546875 C-39.6815625 34.3846875 -40.0115625 34.7146875 -40.3515625 35.0546875 C-46.56341566 34.46866362 -46.56341566 34.46866362 -49.28515625 33.0390625 C-53.15940773 31.19348335 -57.17315951 31.43984742 -61.3515625 32.0546875 C-66.45854684 34.16371516 -70.3599145 37.38771662 -73.3515625 42.0546875 C-74.87391124 47.0566905 -75.48679231 52.37441462 -73.41015625 57.27734375 C-70.75582341 61.72896779 -67.63693006 66.02052334 -62.49052429 67.64050293 C-60.18368237 68.08719549 -58.03998202 68.20759175 -55.69067383 68.24414062 C-54.77324905 68.26085815 -53.85582428 68.27757568 -52.91059875 68.2947998 C-51.9281871 68.30837524 -50.94577545 68.32195068 -49.93359375 68.3359375 C-48.92060715 68.35434692 -47.90762054 68.37275635 -46.86393738 68.39172363 C-42.52959753 68.47041931 -38.19510607 68.53838099 -33.8605957 68.60693359 C-30.69734631 68.65849931 -27.53423717 68.71578905 -24.37109375 68.7734375 C-23.38260941 68.78701294 -22.39412506 68.80058838 -21.37568665 68.8145752 C-20.46771835 68.83129272 -19.55975006 68.84801025 -18.62426758 68.86523438 C-17.41991814 68.88402649 -17.41991814 68.88402649 -16.1912384 68.90319824 C-14.3515625 69.0546875 -14.3515625 69.0546875 -13.3515625 70.0546875 C-13.1640625 72.4921875 -13.1640625 72.4921875 -13.3515625 75.0546875 C-15.77870901 77.48183401 -16.40771255 77.31685937 -19.734375 77.36108398 C-21.09719604 77.38506508 -21.09719604 77.38506508 -22.48754883 77.40953064 C-23.9671106 77.41757469 -23.9671106 77.41757469 -25.4765625 77.42578125 C-26.49322998 77.43480972 -27.50989746 77.4438382 -28.55737305 77.45314026 C-30.71611578 77.46767471 -32.87490289 77.47653739 -35.03369141 77.48022461 C-38.3109994 77.49204125 -41.58637549 77.54112817 -44.86328125 77.59179688 C-46.96353251 77.60127038 -49.06379531 77.60850097 -51.1640625 77.61328125 C-52.13424316 77.63281357 -53.10442383 77.65234589 -54.10400391 77.67247009 C-62.01474332 77.62098033 -68.64549841 75.52970028 -74.50512695 70.03538513 C-81.27428804 62.75676524 -82.9494154 56.44653785 -82.62890625 46.6171875 C-82.01308901 38.7069717 -78.14035908 33.36012532 -72.3515625 28.0546875 C-68.22867328 25.26176255 -64.43806192 23.41887507 -59.3515625 24.0546875 C-59.25875 22.848125 -59.25875 22.848125 -59.1640625 21.6171875 C-57.02761297 12.24967801 -50.81811473 4.33397757 -43.1015625 -1.1953125 C-29.29683808 -9.82903647 -13.28487171 -8.96821872 0 0 Z " fill="#F3F4F4" transform="translate(99.3515625,22.9453125)"/>
<path d="M0 0 C5.78085505 1.15617101 7.11047684 3.06069263 10.3125 7.5625 C10.76689453 8.17802734 11.22128906 8.79355469 11.68945312 9.42773438 C12.80524319 10.94285983 13.90430371 12.47028033 15 14 C18.93561862 10.20590191 22.05701853 6.27369727 25.15625 1.79296875 C27 0 27 0 32 0 C32 10.56 32 21.12 32 32 C29.69 32 27.38 32 25 32 C24.67 26.06 24.34 20.12 24 14 C20.04 18.455 20.04 18.455 16 23 C12.25861209 20.19395906 10.01619057 17.77023821 7 14 C6.67 19.94 6.34 25.88 6 32 C4.02 32 2.04 32 0 32 C0 21.44 0 10.88 0 0 Z " fill="#F1F1F2" transform="translate(170,132)"/>
<path d="M0 0 C0.99 0.66 1.98 1.32 3 2 C3.33 1.34 3.66 0.68 4 0 C5.32 0 6.64 0 8 0 C8 7.59 8 15.18 8 23 C6.68 23 5.36 23 4 23 C4 22.34 4 21.68 4 21 C3.43152344 21.32097656 2.86304688 21.64195313 2.27734375 21.97265625 C-1.43222185 23.64609665 -5.01670007 23.72423635 -9 23 C-12 20.5625 -12 20.5625 -14 18 C-14.33 17.67 -14.66 17.34 -15 17 C-15.64245821 12.7548964 -15.79934714 8.73293578 -13.9765625 4.78125 C-10.19832636 -0.31206281 -6.13944355 -1.32144214 0 0 Z " fill="#F4F5F5" transform="translate(217,104)"/>
<path d="M0 0 C1.98 0 3.96 0 6 0 C6 4.29 6 8.58 6 13 C10.29 13 14.58 13 19 13 C19 8.71 19 4.42 19 0 C20.98 0 22.96 0 25 0 C25 10.56 25 21.12 25 32 C23.02 32 21.04 32 19 32 C19 27.71 19 23.42 19 19 C14.71 19 10.42 19 6 19 C6 23.29 6 27.58 6 32 C4.02 32 2.04 32 0 32 C0 21.44 0 10.88 0 0 Z " fill="#FBFBFB" transform="translate(170,95)"/>
<path d="M0 0 C1.98 0 3.96 0 6 0 C6.06058594 1.07121094 6.12117187 2.14242187 6.18359375 3.24609375 C6.26798537 4.64324391 6.35263406 6.04037857 6.4375 7.4375 C6.47681641 8.14455078 6.51613281 8.85160156 6.55664062 9.58007812 C6.47624438 13.08690419 6.47624438 13.08690419 8 16 C10.95804573 16.33340471 10.95804573 16.33340471 14 16 C16.26954631 12.59568053 16.36549949 10.83475798 16.625 6.8125 C16.69976562 5.72582031 16.77453125 4.63914062 16.8515625 3.51953125 C16.90054688 2.68808594 16.94953125 1.85664062 17 1 C18.65 1 20.3 1 22 1 C22.11638426 5.06225821 22.18731373 9.1240863 22.25 13.1875 C22.30027344 14.91323242 22.30027344 14.91323242 22.3515625 16.67382812 C22.36445313 17.78564453 22.37734375 18.89746094 22.390625 20.04296875 C22.41157227 21.06414795 22.43251953 22.08532715 22.45410156 23.13745117 C21.88121902 26.74876717 20.50385825 28.38934073 18 31 C15.2889923 32.35550385 13.08660831 32.16917207 10.0625 32.1875 C9.00160156 32.20167969 7.94070312 32.21585938 6.84765625 32.23046875 C4 32 4 32 1 30 C1.66 28.68 2.32 27.36 3 26 C6.63 26 10.26 26 14 26 C14.66 24.68 15.32 23.36 16 22 C15.34 22.33 14.68 22.66 14 23 C12.01171875 23.30859375 12.01171875 23.30859375 9.6875 23.4375 C8.92824219 23.49808594 8.16898438 23.55867188 7.38671875 23.62109375 C4.37206495 22.83659301 2.84027897 21.33310755 0.97045898 18.87817383 C-0.82333193 15.40656792 -0.52273949 11.94165539 -0.3125 8.125 C-0.28994141 7.34125 -0.26738281 6.5575 -0.24414062 5.75 C-0.18568018 3.8324974 -0.09601283 1.9159894 0 0 Z " fill="#F3F4F4" transform="translate(215,63)"/>
<path d="M0 0 C1.98 0 3.96 0 6 0 C6 5.94 6 11.88 6 18 C11.03577763 15.52054191 11.03577763 15.52054191 12.875 11.8125 C13.57625 10.884375 14.2775 9.95625 15 9 C18.75 8.625 18.75 8.625 22 9 C21.0234375 10.66015625 20.046875 12.3203125 19.0703125 13.98046875 C18.71710938 14.64691406 18.36390625 15.31335938 18 16 C17.3503125 17.21042969 17.3503125 17.21042969 16.6875 18.4453125 C15.69893628 21.02477302 15.69893628 21.02477302 17.1171875 23.38671875 C17.69726562 24.14597656 18.27734375 24.90523437 18.875 25.6875 C22 29.85650224 22 29.85650224 22 32 C19.375 32.5 19.375 32.5 16 32 C14.2363432 30.06775836 12.87678325 28.06535622 11.4921875 25.84765625 C9.95225196 23.56139207 9.95225196 23.56139207 6 23 C6 25.97 6 28.94 6 32 C4.02 32 2.04 32 0 32 C0 21.44 0 10.88 0 0 Z " fill="#F2F2F3" transform="translate(259,95)"/>
<path d="M0 0 C5.5 3 5.5 3 7 6 C7 8.31 7 10.62 7 13 C1.72 13 -3.56 13 -9 13 C-8.34 14.32 -7.68 15.64 -7 17 C-3.04 17 0.92 17 5 17 C5.33 18.32 5.66 19.64 6 21 C1.27736358 23.51873943 -3.77958048 23.87435598 -9 23 C-12.0625 20.5625 -12.0625 20.5625 -14 18 C-14.33 17.67 -14.66 17.34 -15 17 C-15.53798008 12.91903684 -15.93436984 8.75020022 -13.953125 5.0390625 C-9.88199613 0.12976004 -6.22857471 -0.86668479 0 0 Z " fill="#F4F5F5" transform="translate(224,141)"/>
<path d="M0 0 C7.92 0 15.84 0 24 0 C24 1.98 24 3.96 24 6 C21.03 6 18.06 6 15 6 C15 14.91 15 23.82 15 33 C13.02 33 11.04 33 9 33 C9 24.09 9 15.18 9 6 C6.03 6 3.06 6 0 6 C0 4.02 0 2.04 0 0 Z " fill="#F7F7F7" transform="translate(167,54)"/>
<path d="M0 0 C2.625 0.1875 2.625 0.1875 5.625 2.1875 C6.615 1.5275 7.605 0.8675 8.625 0.1875 C9.615 0.1875 10.605 0.1875 11.625 0.1875 C11.61339844 1.18652344 11.60179687 2.18554688 11.58984375 3.21484375 C11.58082031 4.50519531 11.57179687 5.79554687 11.5625 7.125 C11.55089844 8.41277344 11.53929687 9.70054687 11.52734375 11.02734375 C11.25967451 14.05048403 11.25967451 14.05048403 12.625 15.1875 C12.88793056 19.21910191 12.91904844 20.74642734 10.625 24.1875 C5.875 23.4375 5.875 23.4375 3.625 21.1875 C3.295 22.1775 2.965 23.1675 2.625 24.1875 C1.635 24.1875 0.645 24.1875 -0.375 24.1875 C-0.375 21.5475 -0.375 18.9075 -0.375 16.1875 C-1.365 15.8575 -2.355 15.5275 -3.375 15.1875 C-2.715 14.1975 -2.055 13.2075 -1.375 12.1875 C-2.035 11.1975 -2.695 10.2075 -3.375 9.1875 C-3.68754378 6.46466095 -3.50833428 3.94307514 -3.375 1.1875 C-2.375 0.1875 -2.375 0.1875 0 0 Z " fill="#4A5156" transform="translate(140.375,121.8125)"/>
<path d="M0 0 C1.31291016 -0.03867188 1.31291016 -0.03867188 2.65234375 -0.078125 C5.4818869 0.30709643 6.31382925 1.05694757 8.0625 3.25 C7.4025 4.57 6.7425 5.89 6.0625 7.25 C5.35222656 7.23839844 4.64195312 7.22679688 3.91015625 7.21484375 C2.99105469 7.20582031 2.07195312 7.19679688 1.125 7.1875 C-0.24978516 7.17009766 -0.24978516 7.17009766 -1.65234375 7.15234375 C-3.90343327 6.99050951 -3.90343327 6.99050951 -4.9375 8.25 C-5.18753964 11.70821402 -5.18753964 11.70821402 -4.9375 15.25 C-4.2775 15.91 -3.6175 16.57 -2.9375 17.25 C-0.78187356 17.19620814 -0.78187356 17.19620814 1.5625 16.75 C3.96875 16.34375 3.96875 16.34375 6.0625 16.25 C8.0625 18.25 8.0625 18.25 8.0625 21.25 C3.49842713 23.84752534 -0.79857032 24.28425 -5.9375 23.25 C-9.56754397 20.96335813 -11.48576581 18.15585667 -12.47265625 13.9921875 C-12.7496808 9.80130323 -12.21477656 7.05149052 -9.5625 3.75 C-6.14216067 0.49253397 -4.60156141 0.08108478 0 0 Z " fill="#F3F3F4" transform="translate(243.9375,103.75)"/>
<path d="M0 0 C1.32 0 2.64 0 4 0 C4 0.99 4 1.98 4 3 C4.53625 2.505 5.0725 2.01 5.625 1.5 C8.59358445 -0.37489544 10.55312427 -0.23501425 14 0 C14 1.65 14 3.3 14 5 C13.030625 5.309375 12.06125 5.61875 11.0625 5.9375 C8.15934208 6.69523342 8.15934208 6.69523342 7 8 C6.76346477 10.52596259 6.57826308 13.03107207 6.4375 15.5625 C6.39431641 16.27341797 6.35113281 16.98433594 6.30664062 17.71679688 C6.20028223 19.47761912 6.09961154 21.2387832 6 23 C4.02 23 2.04 23 0 23 C0 15.41 0 7.82 0 0 Z " fill="#F2F3F3" transform="translate(195,64)"/>
<path d="M0 0 C3.0625 0.3125 3.0625 0.3125 4.9375 1.3125 C6.74789788 4.53098512 6.56671822 7.7622512 6.0625 11.3125 C4.875 14.3125 4.875 14.3125 3.0625 16.3125 C0.5625 16.875 0.5625 16.875 -1.9375 16.3125 C-4.77614273 13.33836119 -5.32882678 11.25011081 -5.25 7.1875 C-5.24613281 6.31867188 -5.24226562 5.44984375 -5.23828125 4.5546875 C-4.75223124 0.93140561 -3.53051603 0.37558681 0 0 Z " fill="#E3E4E5" transform="translate(144.9375,77.6875)"/>
<path d="M0 0 C2.5 0.4375 2.5 0.4375 4.3125 1.9375 C5.9971479 5.48412716 6.07735621 8.57791327 5.5 12.4375 C4.3125 14.9375 4.3125 14.9375 2.5 16.4375 C0 16.9375 0 16.9375 -2.5 16.4375 C-4.79756777 14.61529108 -5.40478417 13.16009682 -5.78515625 10.2734375 C-6.0164623 4.09857174 -6.0164623 4.09857174 -4.1328125 1.6875 C-2.5 0.4375 -2.5 0.4375 0 0 Z " fill="#DCDEDF" transform="translate(132.5,100.5625)"/>
<path d="M0 0 C1.72275845 3.44551689 1.36875442 7.22529563 1 11 C-0.1875 13.5625 -0.1875 13.5625 -2 15 C-4.5 15.5625 -4.5 15.5625 -7 15 C-9.587193 12.14516634 -10.21598902 9.62212834 -10.375 5.875 C-10 2 -10 2 -8.9375 -0.0625 C-5.7970884 -1.582054 -3.29352683 -0.79288609 0 0 Z " fill="#E1E2E3" transform="translate(112,79)"/>
<path d="M0 0 C3.5625 0.3125 3.5625 0.3125 5.5 1.5 C6.97609492 4.01804428 7.05339348 5.43726676 6.5625 8.3125 C4.53830677 11.08639443 3.41064923 12.16769403 0 12.75 C-2.4375 12.3125 -2.4375 12.3125 -4.25 11.25 C-6.084421 8.25699731 -5.74857576 5.73433337 -5.4375 2.3125 C-3.4375 0.3125 -3.4375 0.3125 0 0 Z " fill="#424A4F" transform="translate(213.4375,109.6875)"/>
<path d="M0 0 C2.5625 0.1875 2.5625 0.1875 4.5625 2.1875 C4.8125 5.6875 4.8125 5.6875 4.5625 9.1875 C2.5625 11.1875 2.5625 11.1875 -0.0625 11.3125 C-0.84625 11.27125 -1.63 11.23 -2.4375 11.1875 C-4.06401522 7.93446956 -3.55203156 4.79524398 -3.4375 1.1875 C-2.4375 0.1875 -2.4375 0.1875 0 0 Z " fill="#9DA1A4" transform="translate(140.4375,121.8125)"/>
<path d="M0 0 C2.5625 0.1875 2.5625 0.1875 4.5625 2.1875 C4.90740322 6.24011287 4.86413882 7.73504176 2.5625 11.1875 C-2.3125 10.3125 -2.3125 10.3125 -3.4375 9.1875 C-3.5703125 7.375 -3.5703125 7.375 -3.5625 5.1875 C-3.56507813 4.465625 -3.56765625 3.74375 -3.5703125 3 C-3.36228014 0.16097012 -2.84416607 0.21878201 0 0 Z " fill="#DADBDC" transform="translate(148.4375,134.8125)"/>
<path d="M0 0 C2.4375 0.1875 2.4375 0.1875 3.4375 1.1875 C3.71064815 6.92361111 3.71064815 6.92361111 3.4375 9.1875 C2.7775 9.8475 2.1175 10.5075 1.4375 11.1875 C-1.125 10.9375 -1.125 10.9375 -3.5625 10.1875 C-4.94375018 7.42499964 -4.75329306 5.24018901 -4.5625 2.1875 C-2.5625 0.1875 -2.5625 0.1875 0 0 Z " fill="#D4D6D7" transform="translate(131.5625,134.8125)"/>
<path d="M0 0 C4.55555556 0.55555556 4.55555556 0.55555556 6 2 C6.23728814 8.52542373 6.23728814 8.52542373 5 11 C2.625 11.125 2.625 11.125 0 11 C-2 9 -2 9 -2.25 5.5 C-2 2 -2 2 0 0 Z " fill="#BABCBE" transform="translate(109,122)"/>
<path d="M0 0 C1.32 0 2.64 0 4 0 C4 5.28 4 10.56 4 16 C2.68 16 1.36 16 0 16 C-0.33 12.7 -0.66 9.4 -1 6 C-1.99 5.67 -2.98 5.34 -4 5 C-2.25 2.5 -2.25 2.5 0 0 Z " fill="#BABDBF" transform="translate(119,101)"/>
<path d="M0 0 C0 5.28 0 10.56 0 16 C-1.32 15.67 -2.64 15.34 -4 15 C-4.33 12.03 -4.66 9.06 -5 6 C-5.99 5.67 -6.98 5.34 -8 5 C-8 4.34 -8 3.68 -8 3 C-5.04518508 0.25624329 -4.22528092 0 0 0 Z " fill="#E8E9E9" transform="translate(136,78)"/>
<path d="M0 0 C0 5.28 0 10.56 0 16 C-1.32 16 -2.64 16 -4 16 C-4 12.37 -4 8.74 -4 5 C-4.99 5.33 -5.98 5.66 -7 6 C-7 3 -7 3 -5.75 1.3125 C-4 0 -4 0 0 0 Z " fill="#BABDBF" transform="translate(111,101)"/>
<path d="M0 0 C4.70588235 0.70588235 4.70588235 0.70588235 6 2 C6.1328125 3.8125 6.1328125 3.8125 6.125 6 C6.12757812 6.721875 6.13015625 7.44375 6.1328125 8.1875 C6 10 6 10 5 11 C2.5 11.125 2.5 11.125 0 11 C-1 10 -1 10 -1.1328125 7.96875 C-1.13023438 7.1540625 -1.12765625 6.339375 -1.125 5.5 C-1.12757812 4.6853125 -1.13015625 3.870625 -1.1328125 3.03125 C-1 1 -1 1 0 0 Z " fill="#E9EAEB" transform="translate(91,122)"/>
<path d="M0 0 C0 5.28 0 10.56 0 16 C-0.99 16 -1.98 16 -3 16 C-3 12.37 -3 8.74 -3 5 C-4.32 5.33 -5.64 5.66 -7 6 C-7 5.01 -7 4.02 -7 3 C-4.46815512 0.64276511 -3.52809907 0 0 0 Z " fill="#DBDDDE" transform="translate(98,101)"/>
<path d="M0 0 C1.32 0 2.64 0 4 0 C4 4.95 4 9.9 4 15 C3.01 15 2.02 15 1 15 C1 11.37 1 7.74 1 4 C0.34 4 -0.32 4 -1 4 C-1 4.66 -1 5.32 -1 6 C-1.66 6 -2.32 6 -3 6 C-2.42655063 3.13275314 -2.1385485 2.1385485 0 0 Z " fill="#ECEDED" transform="translate(94,78)"/>
<path d="M0 0 C1.65 0 3.3 0 5 0 C6.72275845 3.44551689 6.36875442 7.22529563 6 11 C4.8125 13.5625 4.8125 13.5625 3 15 C0.3125 15.25 0.3125 15.25 -2 15 C-1.34 14.01 -0.68 13.02 0 12 C0.66 12 1.32 12 2 12 C2 8.37 2 4.74 2 1 C1.34 0.67 0.68 0.34 0 0 Z " fill="#E5E6E7" transform="translate(107,79)"/>
<path d="M0 0 C2.9375 0.1875 2.9375 0.1875 6 1 C6.66 2.32 7.32 3.64 8 5 C4.37 5 0.74 5 -3 5 C-1 1 -1 1 0 0 Z " fill="#7C8285" transform="translate(218,146)"/>
<path d="M0 0 C0.33 0 0.66 0 1 0 C1.33 2.97 1.66 5.94 2 9 C3.65 9 5.3 9 7 9 C6.67 10.32 6.34 11.64 6 13 C3.625 13.125 3.625 13.125 1 13 C-1 11 -1 11 -1.23046875 8.65234375 C-1.21628906 7.75644531 -1.20210938 6.86054687 -1.1875 5.9375 C-1.18105469 5.03902344 -1.17460938 4.14054687 -1.16796875 3.21484375 C-1 1 -1 1 0 0 Z " fill="#F2F2F3" transform="translate(129,104)"/>
<path d="M0 0 C1.67542976 0.28604898 3.34385343 0.61781233 5 1 C5 2.65 5 4.3 5 6 C3.34385343 6.38218767 1.67542976 6.71395102 0 7 C-1 6 -1 6 -1.125 3.5 C-1 1 -1 1 0 0 Z " fill="#B5B7BA" transform="translate(112,148)"/>
<path d="M0 0 C1.98 0.495 1.98 0.495 4 1 C4.33 3.31 4.66 5.62 5 8 C3.35 8.33 1.7 8.66 0 9 C-1.53445094 5.93109813 -0.54984289 3.29905734 0 0 Z " fill="#969A9D" transform="translate(147,137)"/>
<path d="M0 0 C0.99 0 1.98 0 3 0 C3 3.63 3 7.26 3 11 C2.01 11 1.02 11 0 11 C0 8.69 0 6.38 0 4 C-0.66 4 -1.32 4 -2 4 C-1.34 2.68 -0.68 1.36 0 0 Z " fill="#D2D3D5" transform="translate(119,122)"/>
<path d="M0 0 C0.99 0 1.98 0 3 0 C3 3.63 3 7.26 3 11 C2.01 11 1.02 11 0 11 C0 8.69 0 6.38 0 4 C-0.66 4 -1.32 4 -2 4 C-1.34 2.68 -0.68 1.36 0 0 Z " fill="#D1D3D4" transform="translate(149,122)"/>
<path d="M0 0 C0.99 0 1.98 0 3 0 C3 3.3 3 6.6 3 10 C1.68 9.67 0.36 9.34 -1 9 C-1.09765625 2.84765625 -1.09765625 2.84765625 -1 1 C-0.67 0.67 -0.34 0.34 0 0 Z " fill="#4D5459" transform="translate(131,104)"/>
<path d="M0 0 C2.475 0.495 2.475 0.495 5 1 C5 2.98 5 4.96 5 7 C3.0625 7.5625 3.0625 7.5625 1 8 C0 7 0 7 -0.0625 3.4375 C-0.041875 2.303125 -0.02125 1.16875 0 0 Z " fill="#B8BBBD" transform="translate(90,138)"/>
<path d="M0 0 C0.99 0 1.98 0 3 0 C3 3.3 3 6.6 3 10 C2.01 10 1.02 10 0 10 C-1.49106457 7.01787087 -1.11941467 4.28390342 -1 1 C-0.67 0.67 -0.34 0.34 0 0 Z " fill="#4B5358" transform="translate(144,81)"/>
<path d="M0 0 C1.32 0.33 2.64 0.66 4 1 C4.125 7.75 4.125 7.75 3 10 C2.01 10 1.02 10 0 10 C0 6.7 0 3.4 0 0 Z " fill="#4D545A" transform="translate(106,81)"/>
<path d="M0 0 C0.33 0 0.66 0 1 0 C1 2.31 1 4.62 1 7 C1.99 6.67 2.98 6.34 4 6 C4.33 4.02 4.66 2.04 5 0 C5.66 0 6.32 0 7 0 C7.125 3.375 7.125 3.375 7 7 C5 9 5 9 2.375 9.125 C1.59125 9.08375 0.8075 9.0425 0 9 C0 6.03 0 3.06 0 0 Z " fill="#E3E4E5" transform="translate(138,124)"/>
<path d="M0 0 C0.66 0 1.32 0 2 0 C2 4.62 2 9.24 2 14 C1.34 14 0.68 14 0 14 C0 10.37 0 6.74 0 3 C-0.66 2.67 -1.32 2.34 -2 2 C-1.34 1.34 -0.68 0.68 0 0 Z " fill="#FEFEFE" transform="translate(120,102)"/>
<path d="M0 0 C0.66 0 1.32 0 2 0 C2 4.62 2 9.24 2 14 C1.34 14 0.68 14 0 14 C0 10.37 0 6.74 0 3 C-0.66 2.67 -1.32 2.34 -2 2 C-1.34 1.34 -0.68 0.68 0 0 Z " fill="#FEFEFE" transform="translate(108,102)"/>
<path d="M0 0 C0.99 0 1.98 0 3 0 C3 3.63 3 7.26 3 11 C2.34 11 1.68 11 1 11 C1 8.36 1 5.72 1 3 C0.01 2.67 -0.98 2.34 -2 2 C-1.34 1.34 -0.68 0.68 0 0 Z " fill="#EAEBEC" transform="translate(139,135)"/>
<path d="M0 0 C0 3.63 0 7.26 0 11 C-0.66 11 -1.32 11 -2 11 C-2.33 8.69 -2.66 6.38 -3 4 C-3.66 4 -4.32 4 -5 4 C-5 3.34 -5 2.68 -5 2 C-2 0 -2 0 0 0 Z " fill="#EBEBEC" transform="translate(104,122)"/>
<path d="M0 0 C0.33 0 0.66 0 1 0 C1 4.62 1 9.24 1 14 C0.34 14 -0.32 14 -1 14 C-1.22142255 12.04310341 -1.4267568 10.08438048 -1.625 8.125 C-1.74101563 7.03445312 -1.85703125 5.94390625 -1.9765625 4.8203125 C-1.98429687 3.88960938 -1.99203125 2.95890625 -2 2 C-1.34 1.34 -0.68 0.68 0 0 Z " fill="#FBFCFC" transform="translate(96,102)"/>
<path d="M0 0 C0.94875 0.04125 1.8975 0.0825 2.875 0.125 C2.545 1.115 2.215 2.105 1.875 3.125 C0.225 3.455 -1.425 3.785 -3.125 4.125 C-3.455 6.765 -3.785 9.405 -4.125 12.125 C-4.455 12.125 -4.785 12.125 -5.125 12.125 C-5.17895478 10.50036158 -5.21777195 8.87521459 -5.25 7.25 C-5.27320313 6.34507813 -5.29640625 5.44015625 -5.3203125 4.5078125 C-5.00242565 0.62959295 -3.76234891 0.15049396 0 0 Z " fill="#D4D5D7" transform="translate(145.125,77.875)"/>
<path d="M0 0 C0.66 0 1.32 0 2 0 C2.1953125 6.0546875 2.1953125 6.0546875 2 8 C1.34 8.66 0.68 9.32 0 10 C-1.32 10 -2.64 10 -4 10 C-4 9.34 -4 8.68 -4 8 C-3.01 7.67 -2.02 7.34 -1 7 C-0.67 4.69 -0.34 2.38 0 0 Z " fill="#E2E3E4" transform="translate(133,136)"/>
<path d="M0 0 C0.66 0.33 1.32 0.66 2 1 C1.34 1.66 0.68 2.32 0 3 C0.33 3.33 0.66 3.66 1 4 C1.07226502 5.85287502 1.0838122 7.70833878 1.0625 9.5625 C1.05347656 10.57441406 1.04445312 11.58632812 1.03515625 12.62890625 C1.02355469 13.41136719 1.01195312 14.19382812 1 15 C0.67 15 0.34 15 0 15 C-0.33 12.03 -0.66 9.06 -1 6 C-1.99 5.67 -2.98 5.34 -4 5 C-4 4.34 -4 3.68 -4 3 C-2 1.375 -2 1.375 0 0 Z " fill="#B4B7B9" transform="translate(132,78)"/>
<path d="M0 0 C0.99 0 1.98 0 3 0 C3 2.31 3 4.62 3 7 C2.01 7 1.02 7 0 7 C0 4.69 0 2.38 0 0 Z " fill="#5B6166" transform="translate(92,124)"/>
<path d="M0 0 C2.625 -0.1875 2.625 -0.1875 5 0 C5.33 0.99 5.66 1.98 6 3 C3.36 3 0.72 3 -2 3 C-1.34 2.01 -0.68 1.02 0 0 Z " fill="#3A4248" transform="translate(219,147)"/>
<path d="M0 0 C0 2.64 0 5.28 0 8 C-0.66 8 -1.32 8 -2 8 C-2 6.35 -2 4.7 -2 3 C-2.66 3 -3.32 3 -4 3 C-4 2.34 -4 1.68 -4 1 C-2 0 -2 0 0 0 Z " fill="#C8CACC" transform="translate(100,138)"/>
<path d="M0 0 C0.99 0 1.98 0 3 0 C3 1.98 3 3.96 3 6 C2.01 6.33 1.02 6.66 0 7 C0 4.69 0 2.38 0 0 Z " fill="#585E63" transform="translate(130,137)"/>
<path d="M0 0 C2 2 2 2 2.125 5.125 C2.08375 6.07375 2.0425 7.0225 2 8 C2.99 8.33 3.98 8.66 5 9 C3.0625 9.5625 3.0625 9.5625 1 10 C0 9 0 9 -0.09765625 6.93359375 C-0.08605469 6.10988281 -0.07445313 5.28617188 -0.0625 4.4375 C-0.05347656 3.61121094 -0.04445313 2.78492187 -0.03515625 1.93359375 C-0.02355469 1.29550781 -0.01195313 0.65742187 0 0 Z " fill="#E2E3E4" transform="translate(90,123)"/>
<path d="M0 0 C0.99 0 1.98 0 3 0 C3 2.64 3 5.28 3 8 C2.34 8 1.68 8 1 8 C1 6.02 1 4.04 1 2 C0.34 1.67 -0.32 1.34 -1 1 C-0.67 0.67 -0.34 0.34 0 0 Z " fill="#CCCECF" transform="translate(119,148)"/>
</svg>
