<?xml version="1.0" encoding="UTF-8"?>
<svg version="1.1" xmlns="http://www.w3.org/2000/svg" width="225" height="225">
<path d="M0 0 C1.21529388 -0.00571014 2.43058777 -0.01142029 3.68270874 -0.01730347 C5.01618947 -0.01854857 6.34967032 -0.01967372 7.68315125 -0.02069092 C9.09798816 -0.02532406 10.51282384 -0.03034938 11.92765808 -0.03573608 C15.76042902 -0.04881296 19.59318248 -0.05529562 23.42597222 -0.05974674 C25.82381119 -0.06268464 28.22164545 -0.06679075 30.61948204 -0.07125092 C38.13142508 -0.08491244 45.64335728 -0.09458609 53.15531188 -0.09845281 C61.80915801 -0.10293263 70.46284611 -0.12048264 79.1166442 -0.1494534 C85.81833984 -0.17110587 92.51999112 -0.18115896 99.22172135 -0.18249393 C103.21877169 -0.18353925 107.21567321 -0.18938902 111.21268654 -0.20731354 C114.97448847 -0.22385646 118.73603068 -0.22591981 122.49785614 -0.21717453 C124.52500811 -0.2160437 126.55215171 -0.22971219 128.57925415 -0.243927 C135.56073777 -0.21215512 141.40757611 0.32934261 147.83427429 3.14044189 C149.19552429 3.72825439 149.19552429 3.72825439 150.58427429 4.32794189 C154.67414677 7.62256139 157.187425 12.19989403 158.83427429 17.14044189 C158.93702041 18.7028216 158.98476178 20.26912063 158.9992218 21.83480835 C159.01045578 22.80094055 159.02168976 23.76707275 159.03326416 24.76248169 C159.04059067 25.82194 159.04791718 26.88139832 159.0554657 27.97296143 C159.06697159 29.09082031 159.07847748 30.2086792 159.09033203 31.3604126 C159.12718777 35.08133158 159.15677899 38.80226688 159.18583679 42.52325439 C159.20898271 45.13034272 159.23237324 47.73742889 159.2559967 50.34451294 C159.30492516 55.83749846 159.34951896 61.33050768 159.39189148 66.82354736 C159.43496207 72.39782486 159.48342775 77.97202108 159.53739929 83.54620361 C160.04728515 136.44648223 160.04728515 136.44648223 159.65038681 154.9441185 C159.60964312 156.91424164 159.5847983 158.88467442 159.56074524 160.85507202 C159.32942293 168.55895423 158.26657326 174.16296792 153.08818054 180.16387939 C152.53001648 180.60989502 151.97185242 181.05591064 151.39677429 181.51544189 C150.84118835 181.97692627 150.28560242 182.43841064 149.71318054 182.91387939 C145.36159509 185.75462333 141.59264386 186.39245787 136.44039917 186.40786743 C135.1493074 186.4163974 133.85821564 186.42492737 132.52799988 186.43371582 C131.1042937 186.43301685 129.68058762 186.43209382 128.25688171 186.43096924 C126.75189888 186.4369561 125.24691911 186.44376202 123.74194336 186.45132446 C119.65917141 186.46897658 115.57648332 186.47367954 111.4936769 186.47495604 C108.94089816 186.47637875 106.38814066 186.48065065 103.8353672 186.48595047 C94.92377496 186.50444882 86.01224252 186.51262141 77.10063171 186.51104736 C68.80325801 186.50984633 60.50614459 186.53094166 52.20883673 186.56253469 C45.07744731 186.5887174 37.94614278 186.59941381 30.81470567 186.59813654 C26.55886419 186.59762745 22.30325402 186.60328107 18.04746056 186.62449265 C14.04265912 186.64390854 10.03830882 186.6439769 6.03349113 186.62945938 C4.56780078 186.62737425 3.10208195 186.63205459 1.63644028 186.6441803 C-7.35656405 186.71373377 -14.24007833 186.58113171 -21.18916321 180.31622314 C-21.63517883 179.70134033 -22.08119446 179.08645752 -22.54072571 178.45294189 C-23.23295227 177.54995361 -23.23295227 177.54995361 -23.93916321 176.62872314 C-27.90408275 168.58523987 -27.45692774 159.69470607 -27.44038391 150.95098877 C-27.4447387 149.53570794 -27.44992439 148.12042946 -27.45587158 146.70515442 C-27.4691882 142.88493009 -27.46984865 139.06480514 -27.46730828 135.24456215 C-27.46623389 132.04633343 -27.47113369 128.84812443 -27.4759137 125.64989996 C-27.4869828 118.10164743 -27.4874605 110.55344469 -27.48139954 103.00518799 C-27.47535692 95.23606344 -27.48768397 87.46711987 -27.5089696 79.69802618 C-27.52661752 73.00900038 -27.53258207 66.32003203 -27.52933186 59.63098383 C-27.52752446 55.64405036 -27.53010099 51.6572461 -27.5440464 47.67033386 C-27.55667282 43.92078743 -27.55463556 40.17152229 -27.54163551 36.4219799 C-27.53816412 34.40202467 -27.54941116 32.38206064 -27.561203 30.36213684 C-27.50581555 20.73318977 -26.52615537 12.78323354 -19.77119446 5.57794189 C-14.08118649 0.4832389 -7.31988322 0.02069672 0 0 Z " fill="#2D98C9" transform="translate(46.16572570800781,18.85955810546875)"/>
<path d="M0 0 C-0.47498532 2.70991623 -1.07426024 5.21532486 -1.97265625 7.8203125 C-7.55294724 24.74119485 -6.89177714 44.96578791 -2 62 C-1.80712402 62.69754395 -1.61424805 63.39508789 -1.41552734 64.11376953 C-0.79724129 66.33232537 -0.15590535 68.54228841 0.5 70.75 C0.70133545 71.4308667 0.9026709 72.1117334 1.11010742 72.81323242 C2.21004715 76.28512401 3.0604289 78.79357204 6 81 C8.55982961 81.47302984 8.55982961 81.47302984 11.48120117 81.43237305 C12.60213669 81.45216721 13.7230722 81.47196136 14.87797546 81.49235535 C16.08742325 81.49874527 17.29687103 81.50513519 18.54296875 81.51171875 C19.78170242 81.52966995 21.0204361 81.54762115 22.29670715 81.56611633 C25.5862946 81.61115077 28.87568459 81.6434265 32.16546631 81.66955566 C35.52386017 81.69935939 38.88201762 81.74589023 42.24023438 81.79101562 C48.82671397 81.8761132 55.41320899 81.94439613 62 82 C62.09965569 86.26832981 62.17183391 90.53602469 62.21972656 94.80517578 C62.23971295 96.25418917 62.26691197 97.70312325 62.30175781 99.15185547 C62.51817157 108.38763066 62.62293369 115.64277483 56.25390625 123.0234375 C55.69574219 123.46945313 55.13757813 123.91546875 54.5625 124.375 C54.00691406 124.83648437 53.45132813 125.29796875 52.87890625 125.7734375 C48.5273208 128.61418143 44.75836957 129.25201597 39.60612488 129.26742554 C38.31503311 129.27595551 37.02394135 129.28448547 35.69372559 129.29327393 C34.27001941 129.29257495 32.84631333 129.29165192 31.42260742 129.29052734 C29.91762458 129.29651421 28.41264481 129.30332012 26.90766907 129.31088257 C22.82489712 129.32853469 18.74220903 129.33323764 14.65940261 129.33451414 C12.10662387 129.33593686 9.55386637 129.34020876 7.00109291 129.34550858 C-1.91049933 129.36400693 -10.82203178 129.37217952 -19.73364258 129.37060547 C-28.03101628 129.36940443 -36.3281297 129.39049977 -44.62543756 129.4220928 C-51.75682699 129.4482755 -58.88813152 129.45897192 -66.01956862 129.45769465 C-70.2754101 129.45718556 -74.53102027 129.46283918 -78.78681374 129.48405075 C-82.79161517 129.50346664 -86.79596547 129.50353501 -90.80078316 129.48901749 C-92.26647351 129.48693235 -93.73219234 129.4916127 -95.19783401 129.5037384 C-104.19083834 129.57329187 -111.07435263 129.44068981 -118.0234375 123.17578125 C-118.46945313 122.56089844 -118.91546875 121.94601563 -119.375 121.3125 C-120.06722656 120.40951172 -120.06722656 120.40951172 -120.7734375 119.48828125 C-126.37428489 108.12605263 -124 93.74529367 -124 82 C-95.785 81.505 -95.785 81.505 -67 81 C-65.35 72.75 -63.7 64.5 -62 56 C-60.14172895 50.70195063 -58.41260873 45.97947633 -56 41 C-55.29037109 39.51693359 -55.29037109 39.51693359 -54.56640625 38.00390625 C-51.15466575 31.3376057 -46.92183226 25.62629299 -42 20 C-41.11054688 18.95005859 -41.11054688 18.95005859 -40.203125 17.87890625 C-30.38700409 7.11892756 -14.65398951 -0.96091734 0 0 Z " fill="#2D97C8" transform="translate(143,76)"/>
<path d="M0 0 C1 1 1 1 1.2734375 3.578125 C0.93049382 7.86982023 -0.52379072 10.91473049 -2.375 14.75 C-11.16323566 34.11605975 -9.40976772 54.98391008 -3 75 C-2.01 77.31 -1.02 79.62 0 82 C17.16 82.33 34.32 82.66 52 83 C53 89 53 89 52 91 C44.09809304 91.10132712 36.19635328 91.17143514 28.29394531 91.21972656 C25.60495534 91.237599 22.91634174 91.26544475 20.22753906 91.30175781 C16.36512439 91.35021615 12.50328792 91.37295626 8.640625 91.390625 C7.4363385 91.41127014 6.232052 91.43191528 4.99127197 91.45318604 C3.30998199 91.45363922 3.30998199 91.45363922 1.59472656 91.45410156 C0.60877502 91.46298401 -0.37717651 91.47186646 -1.39300537 91.48101807 C-4.73054326 90.86520705 -5.88486456 89.59221125 -8 87 C-8.97314453 84.9921875 -8.97314453 84.9921875 -9.6328125 82.875 C-9.88160156 82.08480469 -10.13039063 81.29460937 -10.38671875 80.48046875 C-10.63035156 79.66191406 -10.87398438 78.84335938 -11.125 78 C-11.37636719 77.21238281 -11.62773437 76.42476563 -11.88671875 75.61328125 C-15.22982211 64.74381955 -16.38959288 54.03265262 -16.375 42.6875 C-16.37483887 41.50849121 -16.37467773 40.32948242 -16.37451172 39.11474609 C-16.23066894 28.11153072 -14.16422566 19.1667131 -10 9 C-27.44081073 11.27749418 -42.56264049 18.28645545 -54 32 C-64.21926099 45.73213195 -70.10157908 60.40673524 -73.58691406 77.07275391 C-74.19327007 79.90169855 -74.89358115 82.70105558 -75.625 85.5 C-75.84414062 86.3559375 -76.06328125 87.211875 -76.2890625 88.09375 C-77 90 -77 90 -79 91 C-80.7566923 91.09072287 -82.5168501 91.11754144 -84.27587891 91.11352539 C-85.92736435 91.11341209 -85.92736435 91.11341209 -87.61221313 91.11329651 C-88.80494843 91.10813522 -89.99768372 91.10297394 -91.2265625 91.09765625 C-92.44451508 91.0962413 -93.66246765 91.09482635 -94.91732788 91.09336853 C-98.8199099 91.08775639 -102.72243523 91.07520179 -106.625 91.0625 C-109.26562417 91.05748657 -111.90624924 91.05292339 -114.546875 91.04882812 C-121.03126945 91.03778301 -127.51563068 91.02103302 -134 91 C-134.04241723 88.66705225 -134.04092937 86.33297433 -134 84 C-132.37392364 82.37392364 -130.54316935 82.83409069 -128.29663086 82.79467773 C-127.29566879 82.77473251 -126.29470673 82.75478729 -125.26341248 82.73423767 C-124.1748848 82.71752518 -123.08635712 82.70081268 -121.96484375 82.68359375 C-120.85645645 82.66281265 -119.74806915 82.64203156 -118.60609436 82.62062073 C-115.04996192 82.55500377 -111.49375297 82.49618404 -107.9375 82.4375 C-105.53319507 82.39432632 -103.12889801 82.35071242 -100.72460938 82.30664062 C-94.81648815 82.19931008 -88.90829009 82.09756669 -83 82 C-82.94303955 81.33581558 -82.8860791 80.67163116 -82.82739258 79.98731995 C-82.24225603 73.60434625 -81.07168594 68.00105502 -79 61.9375 C-78.69239746 61.03209473 -78.38479492 60.12668945 -78.06787109 59.19384766 C-73.27285459 45.60041697 -66.79816981 33.65573775 -57 23 C-56.19369141 22.05640625 -56.19369141 22.05640625 -55.37109375 21.09375 C-41.78742254 6.11426295 -19.86004329 -1.62377712 0 0 Z " fill="#DFE3E4" transform="translate(153,67)"/>
</svg>
